<svg id="DeliveryTrack_LOGO" data-name="DeliveryTrack LOGO" xmlns="http://www.w3.org/2000/svg" viewBox="0 0 1000 1000"><title>logo</title><path id="Waves_BG" data-name="Waves BG" d="M1000,1000H0V482.77a162.88,162.88,0,0,1,47.86,11.86c57.73,26.44,127.52,118.16,151.08,146.58,126.8,152.88,200.72-1.26,202.34-72.12,5.94-242.26,245.32,281.47,445.32,4.86,56.28-77.74,108.19-72.49,153.4-35.48Z" fill="#92dce5"/><path id="Waves_MG" data-name="Waves MG" d="M0,683.73c41.34-39.36,86.21-81,98.4,10.36,23.38,175.18,125.36-171,155,1.08S410.63,566.57,416,719.62s140.29-209.35,152-24.46S728.43,557,733.65,691.93c5.4,134.89,240.11-159.35,244.24-29.68.39,11.64,9.19,18.83,22.1,22.46V1000H0Z" fill="#4ea5d9"/><g id="Boat"><path id="Base" d="M256.15,776.3l96.11,86.85L801.9,798.6l.27-.27,31.24-227.6a.31.31,0,0,0-.42-.34L256.26,775.78A.31.31,0,0,0,256.15,776.3Z" fill="#bd8b9c"/><path id="Floaty_Ring_thing" data-name="Floaty Ring thing" d="M754.35,742.69A52.26,52.26,0,1,1,786,675.92a52.32,52.32,0,0,1-31.69,66.77ZM729.5,672.9a21.82,21.82,0,1,0,27.87,13.22A21.84,21.84,0,0,0,729.5,672.9Z" fill="#e8f0ff"/><path id="Mast" d="M272.92,584.17,414.08,143.69,584.52,621.61a.34.34,0,0,1-.36.45Z" fill="#e8f0ff"/><path id="Mast_Design_2" data-name="Mast Design 2" d="M549.11,476.91a15.14,15.14,0,0,1-7.5.68L318.15,441.84a15.22,15.22,0,0,1,4.8-30.05l223.47,35.74a15.22,15.22,0,0,1,2.7,29.37Z" fill="#bd8b9c"/><path id="Mast_Design_1" data-name="Mast Design 1" d="M528.15,418a15.14,15.14,0,0,1-7.65.66L334.49,387a15.22,15.22,0,0,1,5.11-30l186,31.72A15.22,15.22,0,0,1,528.15,418Z" fill="#bd8b9c"/><path id="Outline" d="M600.71,653.12,256.26,775.78a.3.3,0,0,0-.1.51l96.11,86.86a.3.3,0,0,0,.25.08l449.4-64.62a.3.3,0,0,0,.26-.26l31.23-227.62a.3.3,0,0,0-.4-.33L610.62,649.59M329.82,883.87,216.47,781.45A15.25,15.25,0,0,1,213.78,762a15.82,15.82,0,0,1,8.29-6.38L528.5,646.52a.3.3,0,0,0-.07-.59L251,612.16a15.22,15.22,0,0,1-12.66-19.74L398.81,90.87a15.21,15.21,0,0,1,17.36-10.31A16,16,0,0,1,427.9,91.14L614.64,615.52l.39.18,231.34-82.38a15.76,15.76,0,0,1,10.36-.32A15.29,15.29,0,0,1,867,549.55L832.3,802.7h0c-3.69,28.65-8.62,40.89-37.38,43.58L361.73,895.11a30.21,30.21,0,0,1-23.65-5.22Zm-56.9-299.7,311.27,37.89a.3.3,0,0,0,.32-.4L414.38,143.89a.3.3,0,0,0-.58,0L272.92,584.17Z" fill="#bd8b9c"/></g><path id="Waves_FG" data-name="Waves FG" d="M0,737.58c23.84-5.22,42.4,3.13,45.7,46.79,10.61,140.29,190.83-150.18,220.14,12.77C295.16,960.27,423.22,638,460.63,798s197.48-119.6,204.14,22.66S840.84,626.1,855.59,798c9.28,108.2,86.65,29.37,144.4-12.66V1000H0Z" fill="#476c9b"/></svg>