<svg version="1" xmlns="http://www.w3.org/2000/svg" width="11106.667" height="11106.667" viewBox="0 0 8330.000000 8330.000000"><path d="M3425.9 714.5c-.2.2-2.2.6-4.4.9-7.7 1.2-9.4 1.6-12.2 2.7-1.5.6-2.8 1-2.8.9 0-.5-9.6 2.5-13.5 4.2-30.1 13.4-51.6 33.3-65.1 60.1-3.1 6.4-14.3 36.9-15.3 42.2-.2 1.1-8.8 27.9-11.3 35.5-.8 2.5-1.6 4.9-1.7 5.5-.2.5-.6 1.7-.9 2.5-.6 1.7-3.1 9.2-3.2 10-.1.3-1.6 5.2-3.5 11-1.8 5.8-3.5 10.9-3.6 11.5-.1.5-1.4 4.4-2.8 8.5-1.5 4.1-2.7 7.6-2.7 7.7 0 .4-.4 1.7-4.4 14.2-2.1 6.3-3.8 11.9-4 12.5-.1.6-.5 1.8-.8 2.6-1.1 2.7-9 28.5-8.9 28.7.1.2-.7 2.3-1.8 4.8s-1.7 4.5-1.5 4.5c.2 0-.3 1.9-1.1 4.2-.9 2.4-1.7 4.7-1.8 5.3-.2.5-.6 1.7-.9 2.5-.5 1.3-5.8 18.4-6.2 20-.1.3-.4 1.2-.8 2-.5 1.2-7.7 24-8.2 26-.1.3-.4 1.2-.7 2-.8 2-5.9 18.2-6.3 19.5-.1.5-.5 1.7-.8 2.5-.7 1.8-7.8 24.1-8.2 25.5-.1.5-.5 1.7-.8 2.5-.6 1.5-5.7 17.6-6.1 19.5-.2.5-.6 1.7-.9 2.5-.9 2.4-5.9 18.3-6.2 20-.2.8-.9 2.8-1.5 4.5-1 2.5-6.6 19.9-7.4 23-.2.5-.6 1.7-.9 2.5-1.1 2.9-7.9 24.5-8.2 26.3-.2.9-.7 2.2-1 2.7-.3.5-.8 1.8-1 2.7-.1 1-1.9 6.5-3.8 12.3-6.7 20.5-9.9 30.5-10.2 31.5-.1.5-.5 1.7-.8 2.5-.3.8-2.7 8.2-5.2 16.5-2.6 8.2-5.8 18.3-7.2 22.2-1.3 4-2.6 8.1-2.8 9-.2 1-1.7 5.6-3.3 10.3-1.6 4.7-2.9 8.9-2.9 9.3-.1.4-.6 2-1.1 3.5-1.3 3.3-6.4 19.3-6.6 20.7-.1.5-.4 1.4-.7 2-.4.5-1.6 4.4-2.8 8.5-1.2 4.1-2.5 8.2-2.8 9-.3.8-.7 1.9-.8 2.5-.4 1.6-5.5 17.2-8.2 25.2-1.3 4-2.6 8.2-2.8 9.3-.2 1.1-.7 2.5-1 3-.3.5-.8 1.8-1 2.7-.1 1-1.3 4.7-2.5 8.3l-2.5 7.5c-.1.5-.5 1.7-.8 2.5-.6 1.5-5.7 17.6-6.1 19.5-.2.5-.6 1.7-.9 2.5-.3.8-1.4 4-2.3 7-.9 3-2.5 8.1-3.6 11.4-1.1 3.2-2.1 6.3-2.3 7-.1.6-.5 1.9-.9 2.8-.4.9-.9 2.2-1 3-.2 1.3-9.3 30.1-10.3 32.8-.4.8-.7 1.7-.8 2-1 3.5-6.4 20.5-8.7 27.5-3.3 9.9-8.9 27.4-9.2 29-.1.5-.7 2.3-1.3 4-1.3 3.5-8.4 25.5-8.7 27-.2 1.1-9.9 31.2-14.6 45.5-2.2 6.6-7.7 24.1-8.5 27-.1.3-.4 1.2-.7 2-.4.8-3 8.9-5.8 18-2.9 9.1-6.1 18.9-7.1 21.7-1 2.9-1.6 5.3-1.4 5.3.3 0-.1 1.3-.9 2.9-.8 1.5-1.7 3.9-2 5.2-.2 1.3-2.2 7.8-4.4 14.4-2.2 6.6-6.1 18.7-8.7 27-2.6 8.2-5.4 17-6.2 19.5-.8 2.5-1.6 4.9-1.7 5.5-.2.5-.6 1.8-1 2.7-.4.9-.9 2.2-1 3-.1.7-1.5 5.3-3.1 10.3-1.5 4.9-2.7 9.1-2.6 9.3.1.1-.5 1.5-1.4 3.2-.8 1.6-1.7 3.9-1.9 5.2-.3 1.3-.5 2.3-.6 2.3-.1 0-.3.7-.5 1.5-.1.8-1.6 5.5-3.2 10.5-7 21.1-9.6 29-9.8 30-.1.5-.5 1.8-.9 2.7-.4.9-.9 2.2-1 3-.1.7-1.7 5.8-3.5 11.3-1.8 5.5-3.5 10.7-3.6 11.5-.2.8-.4 1.6-.5 1.7-.2.2-.3.6-.4 1-.2 1-10 31.5-13.6 42.3-1.5 4.7-4.9 15.2-7.5 23.5-2.6 8.2-5.8 18.3-7.2 22.4-1.4 4.1-2.6 7.9-2.7 8.5-.1.6-1.8 5.8-3.6 11.6-1.9 5.8-3.5 10.7-3.6 11 0 .3-.3 1.2-.7 2-.3.8-3.3 10.3-6.7 21-3.4 10.7-8.6 27.1-11.7 36.5-3 9.3-5.6 17.4-5.7 18-.2.5-1.8 5.7-3.6 11.5-1.9 5.8-3.5 10.7-3.5 11-.1.3-.4 1.2-.8 2-.3.8-2.9 8.9-5.8 18-2.8 9.1-6.4 20.3-7.9 25-1.5 4.7-4.9 15.2-7.5 23.5-2.6 8.2-5.8 18.3-7.2 22.4-1.4 4-2.6 7.8-2.8 8.5-.1.6-.5 1.8-.8 2.6-.5 1.3-6.9 21.6-7.3 23 0 .3-.3 1.2-.7 2-.3.8-2.9 8.9-5.7 18-2.9 9.1-6.3 19.8-7.7 23.7-1.3 4-2.6 8.1-2.8 9-.2 1-1.5 4.9-2.8 8.8-1.3 3.8-2.5 7.3-2.6 7.7-.3 1.7-.7 3-1.4 4.8-.8 2.3-5.9 17.9-6.1 19.3-.2.7-.8 2.5-1.5 4.2-.7 1.6-1.5 4.3-1.8 6-.3 1.6-1 3.6-1.6 4.2-.5.7-.7 1.3-.4 1.3.3 0-.8 3.7-2.4 8.2-1.6 4.6-3 8.4-3 8.5.1.6-9.3 30.3-12.9 41.3-1.6 4.7-5.4 16.6-8.5 26.5-3.1 9.9-6.7 21.1-8 25-6.8 20.7-10.7 33.1-11 34.5-.2.8-2.1 6.9-4.3 13.5-3.8 11.6-11.5 35.5-11.7 36.5-.9 3.8-2 6.8-2.9 7.9-.6.8-1 1.7-.9 2 .1.3-.2 2.4-.8 4.6-.6 2.2-1 4-.8 4 .1 0-.3 1-1 2.3-.7 1.3-1.4 3.1-1.6 4-.2.9-1.9 6.4-3.8 12.2-1.9 5.8-5.8 17.9-8.7 27-2.9 9.1-6.6 20.5-8.2 25.5-1.7 4.9-3.1 9.4-3.2 10-.1.5-2.8 9-6 18.7-3.1 9.8-5.9 18.6-6.1 19.5-.2 1-1.3 4.3-2.5 7.3s-2.1 5.5-2 5.5c.1 0-1.3 4.7-3.1 10.5s-3.4 10.7-3.4 11c-.1.3-.4 1.2-.8 2-.3.8-1.7 5.1-3 9.5-5.4 17.3-16.9 53.3-18.9 58.9-1.1 3.3-2.1 6.4-2.2 7-.2.6-1.5 4.9-3 9.6-1.5 4.7-2.9 8.9-3 9.5-.1.5-.6 2.3-1.2 4-1.7 4.7-4.5 13.3-4.8 14.7-.2.7-.6 2-.9 2.8-.8 2.1-3 9.3-3.3 10.5-.1.5-1.6 5.3-3.4 10.5-1.8 5.2-3.3 9.9-3.5 10.5-.1.5-.4 1.7-.7 2.5-2 5.9-4 12.1-4.2 13.2-.2.7-.6 2.2-1 3.3-2.6 6.9-3.4 9.1-3.5 9.8 0 .4-1.2 4.4-2.7 9-1.4 4.5-2.7 8.6-2.8 9.2-.1.5-.7 2.3-1.3 4-.6 1.6-3.5 10.4-6.3 19.5-2.9 9.1-6.4 19.9-7.7 24-1.3 4.1-2.6 8.2-2.8 9-.2.8-1.2 4-2.3 7-1.1 3-2 5.7-2 6 0 .3-.3 1.2-.6 2-1.8 5.2-4.8 14.8-5.1 16.3-.2.9-1.7 5.7-3.3 10.5-1.7 4.8-5.3 16.1-8.1 25.2-2.9 9.1-6.1 19.2-7.3 22.4-1.1 3.3-2.1 6.4-2.3 7-.1.6-.5 1.8-.8 2.6-.6 1.7-5.8 18-6.2 19.5-.1.5-.4 1.7-.8 2.5-.9 2.6-12.9 40.4-13.1 41.5-.2.5-2.2 6.8-4.5 14-2.4 7.1-4.4 13.4-4.5 14-.2.5-.5 1.7-.9 2.5-.8 2.2-5.9 18.3-6.2 19.5-.1.5-.5 1.7-.8 2.5-1 2.4-4.8 14.3-5.2 16.2-.2.9-1.5 5.1-2.9 9.5-5.3 16.2-10.5 32.2-14.7 45.3-2.3 7.4-6.1 19.4-8.5 26.5-3.4 10.5-9.3 29.1-9.9 31.5-.1.3-.4 1.2-.7 2-.9 2.4-5 15.2-5.3 16.4-.1.6-.5 1.8-.8 2.6-.8 2.2-9.9 30.3-10.1 31.5-.3 1.2-13.5 42.7-21.1 66-1.8 5.5-5.4 16.7-8 25-2.6 8.2-5.5 17.4-6.6 20.3-1 2.8-1.9 5.5-2 6-.1.4-.3 1.1-.5 1.7-.2.5-1.7 5.3-3.3 10.5-8.5 27-16.5 52.1-18.2 56.7-1 2.9-1.6 5.3-1.4 5.3.3 0 .1.9-.5 2-.6 1-2.6 6.8-4.4 12.7-1.9 5.9-5.5 17.3-8.1 25.3-2.5 8-4.8 15.2-5 16-.2.8-2.2 7.1-4.5 14s-4.3 13.2-4.5 14c-.2.8-2 6.4-4 12.5-2 6-3.8 11.7-4 12.5-.2.8-2 6.4-4 12.5-2 6-3.8 11.8-4 12.8-.2.9-.7 2.2-1 2.7-.3.5-.8 1.8-1 2.7-.2 1-2.4 8.1-4.8 15.8-4.8 14.8-6 18.7-6.2 19.5-.1.3-.5 1.4-.9 2.5-1.3 3.3-1.8 4.9-2.2 7.5-.3 1.3-.9 2.9-1.3 3.5-.7.8-2.2 5.8-2.6 8.5 0 .3-.3.9-.6 1.5-.4.5-1 2.3-1.4 4-.5 1.6-.9 3.2-1 3.5-.1.3-1.4 4.3-2.9 9s-2.9 9.3-3.1 10.2c-.2.9-.8 2.5-1.3 3.5-.6 1-1.1 2.2-1.2 2.8-.4 1.6-.7 2.6-2.5 8.5-1 3-1.8 5.9-2 6.5-.1.5-.5 1.7-.8 2.5-.7 1.8-7.8 24.1-8.2 25.5-.1.5-.5 1.7-.8 2.5-.3.8-1.8 5.3-3.2 10-1.4 4.7-3.4 11-4.4 14-1.1 3-4 12.2-6.6 20.5-2.6 8.2-6.1 19-7.7 24-1.7 4.9-3.1 9.7-3.3 10.5-.2.8-1.7 5.4-3.3 10.2-1.7 4.9-2.8 8.8-2.5 8.8.3 0 .1.6-.4 1.2-.5.7-1.8 4-2.7 7.3-1 3.3-2.4 7.7-3.2 9.7-.8 2.1-1.1 3.8-.8 3.8.4 0 .2.6-.3 1.2-.8 1.1-1.6 3.3-2.8 7.8-.1.4-9.6 30.1-14.8 46-.6 1.9-1.2 3.9-1.3 4.5-.1.5-1.6 4.9-3.2 9.7-1.7 4.9-2.8 8.8-2.5 8.8.3 0 .1.6-.4 1.2-.9 1.1-1.5 2.8-2.9 8.3-.1.5-2 6.4-4.2 13-4 12.2-8.6 26.6-8.7 27.5 0 .3-.3.9-.6 1.5-.5.8-1.3 3.5-2.5 8-.1.5-1.8 5.7-3.7 11.5-1.9 5.8-6 18.6-9.1 28.5-3.2 9.9-6.4 19.8-7.3 22-.8 2.2-1.5 4.2-1.5 4.5-.1 1-6.3 20.8-13.4 42.5-2 6-3.7 11.7-3.9 12.5-.2.8-1.6 5.3-3.2 10-1.7 4.7-3 8.7-3.1 9 0 .3-.3 1.2-.6 2-.2.8-2.8 8.9-5.6 18-2.9 9.1-6.1 19.2-7.2 22.5-1.1 3.3-2.2 6.8-2.3 7.8-.2.9-.7 2.2-1 2.7-.3.5-.8 1.8-1 2.7-.2 1-2 6.7-4 12.8-2 6-3.8 11.7-4 12.5-.2.8-1.7 5.5-3.3 10.5-4.5 13.4-10.4 31.9-10.6 33-.1.5-2.4 7.5-5 15.5s-4.9 14.9-5 15.5c-.1.5-3.3 10.4-7 22-3.8 11.5-6.9 21.4-7 22-.1.5-.4 1.4-.7 2-.4.5-1 2.3-1.4 4-.5 1.6-.9 3.2-1 3.5-.4 1.5-7.9 25-11 34.5-2 6-3.8 11.7-4 12.5-.2.8-1.5 5.1-3 9.5-4.1 12.4-10.7 32.9-10.9 34-.1.5-.7 2.3-1.3 4-.6 1.6-3 9.1-5.3 16.5-2.4 7.4-5.8 18-7.5 23.5-1.8 5.5-5.7 17.4-8.5 26.5-2.9 9.1-7.7 24.1-10.7 33.3-3 9.3-5.6 17.4-5.7 18-.1.7-.5 1.8-.9 2.4-.5.7-.6 1.3-.2 1.3.3 0-.1 1.3-1 3-.8 1.6-1.5 3.3-1.6 3.7 0 .5-1.1 4.4-2.5 8.8s-2.7 8.8-2.9 9.7c-.2.9-.9 2.7-1.6 4-.7 1.3-1.1 2.4-1 2.6.2.1-.8 3.7-2.2 8-1.4 4.2-5.1 15.8-8.2 25.7-3.1 9.9-5.9 18.7-6.2 19.5-.2.8-.4 1.7-.4 2-.1.3-.5 1.1-1.1 1.7-.6.7-.8 1.3-.5 1.3.3 0-.1 1.6-.9 3.5s-1.1 3.5-.8 3.5c.4 0 .2.6-.3 1.2-.6.7-1.4 2.6-1.8 4.3-.5 1.6-.9 3.2-1 3.5-.1.3-1.8 5.7-3.9 12-2 6.3-3.9 12.2-4.1 13-.1.8-1.3 4.4-2.5 8-1.2 3.6-2.3 6.9-2.4 7.5-.1.5-.4 1.4-.7 2-.5.8-1.3 3.5-2.5 8-.1.5-1.5 4.8-3.1 9.5s-3 8.7-3.1 9c0 .3-.3 1.2-.6 2-.5 1.5-4.9 16-5.1 17-.1.3-.7 1.8-1.4 3.4-.6 1.6-1.3 3.6-1.5 4.5-.2.9-.5 2.3-.8 3.1-2.3 6.6-3.9 11.8-4.2 13.5-.2 1.1-1.4 4.5-2.6 7.5-1.2 3-2.1 5.5-1.9 5.5.1 0-2.4 8.1-5.6 18-3.1 9.9-5.9 18.4-6 19-.1.5-.5 1.7-.8 2.5-.3.8-1.8 5.3-3.3 10-1.4 4.7-3.6 11.6-4.9 15.5-2.4 7.4-9.9 31.5-11 35.2-2.3 8.2-2.9 14.2-2.9 30.8-.1 14.5.3 19.5 1.9 26.3.3 1.2.7 3.2 1 4.4 1 4.8 4.7 15.2 7 20.1 1.4 2.8 2.5 5.4 2.5 5.8 0 1.1 6.3 11.3 7.3 11.7.4.2.7 1 .7 1.7 0 .8.6 2 1.3 2.7.6.7 2.9 3.6 5.1 6.3 10 12.9 26.7 26.6 42.2 34.4 8.2 4.1 29.2 11.6 30.1 10.7.3-.3 1.5-.1 2.7.4 1.3.4 4.9 1.1 8.2 1.5 3.2.4 7 .8 8.4 1 1.4.1 5.2.6 8.5.9 3.3.4 6.9.9 8 1.1 1.1.2 4.7.7 8 1 3.3.3 7.1.8 8.5 1 1.4.3 5 .7 8 1 3 .3 7.1.8 9.1 1.1 2 .2 5.5.7 7.9.9 2.4.2 6 .7 8 1 2 .3 5.6.8 8 1 2.4.2 6.1.7 8.4 1 4.2.6 7 .9 16.5 2 3 .4 6.1.8 7 1 .9.1 4.5.6 8.1 1 8.3.8 12.9 1.4 18.3 2 2.3.3 5.8.8 7.7 1 1.9.2 5.4.6 7.8.9 2.3.4 6.1.8 8.5 1.1 4 .5 9.5 1.2 16.2 2 1.7.2 5 .7 7.5.9 2.5.3 6.8.9 9.5 1.2 2.8.4 6.1.8 7.5.9 5.2.6 14.6 1.7 17 2 1.4.3 5 .7 8 1 3 .3 6.6.8 8 1 1.4.2 5.1.7 8.3 1 3.2.4 6.7.8 7.8 1 1.1.2 4.8.7 8.2 1 3.4.3 7.6.8 9.2 1 1.7.3 5.5.7 8.5 1 3 .3 6.6.7 8 1 3.2.5 9.1 1.3 16 2 3 .4 6.6.8 8 1 1.4.2 5 .7 8 1 3 .3 6.9.8 8.5 1 1.7.3 5 .7 7.5 1 2.5.2 6.3.7 8.5 1 7.7 1 11.1 1.4 17.5 2.1 3.6.3 7.4.8 8.5 1 1.1.2 4.4.6 7.5.9 3.1.3 6.6.7 7.8 1 1.3.2 5.3.7 9 1.1 3.6.3 7.5.8 8.6 1 1.1.2 4.2.6 7 .9 2.8.3 6.2.8 7.6 1 1.4.2 5.2.7 8.5 1 3.3.4 7.1.8 8.5 1 1.4.1 5 .6 8 .9 3 .4 7.1.9 9.1 1.2 2 .2 5.5.7 7.9.9 2.4.2 6 .7 8.1 1 4.4.6 10.2 1.3 15.7 1.9 2 .3 6.2.8 9.2 1.2 3 .4 6.6.8 8 .9 1.4.2 4.5.6 7 .9 2.5.3 6.8.8 9.5 1.1 2.8.3 6.1.7 7.5 1 2.3.3 11.3 1.4 17 2 1.4.1 4.8.5 7.5.9 7.8 1 12.7 1.6 16.5 2 1.9.2 5.8.7 8.5 1.1 7.6.9 19.4 2.4 24.8 3 9.7 1.1 14.3 1.6 16.7 2 1.4.2 4.8.7 7.5 1 2.8.3 6.6.7 8.5 1 1.9.2 5.8.7 8.5 1 2.8.3 6.1.8 7.5 1 1.4.2 5.4.6 9 1 3.6.4 7.6.8 9 1 1.4.3 4.8.7 7.5 1 2.8.3 6.6.7 8.5 1 3.1.4 6.2.8 16 2 4.8.5 13.5 1.6 16 2 2.6.4 9.2 1.2 16.8 2 2.3.3 6.1.7 8.5 1 6.3.7 16.2 1.9 24.7 3 3 .4 6.6.9 8 1 3.6.4 13 1.6 16 2 1.4.2 5 .7 8 1 3 .3 6.6.8 8 1 1.4.2 5 .7 8 1 3 .3 7.1.8 9 1 1.9.3 5.5.7 8 .9 5.1.5 13.2 1.5 17.1 2.2 1.4.2 5.2.6 8.5.9 3.2.3 7 .8 8.4 1 4.3.7 10.3 1.5 15 2 2.5.2 6.1.7 8 .9 1.9.3 6 .7 9 1.1 3 .3 7.1.8 9.1 1 2 .3 5.4.7 7.5 1 2.1.2 5.7.6 7.9.9 2.2.3 5.8.7 8 1 2.2.3 5.8.7 8 1 2.2.3 6 .8 8.4 1.1 2.4.3 6.7.8 9.5 1.1 2.8.3 6.2.7 7.6.9 3.3.4 11.5 1.4 17 2 2.5.3 5.6.7 7 1 1.4.2 5.2.7 8.5 1.1 3.3.3 7.1.7 8.5.9 4.4.5 13.4 1.6 16.5 2 1.7.2 5.3.7 8 1 2.8.3 6.1.8 7.5 1 1.4.2 5.2.6 8.5 1 8.8 1 13.5 1.5 18 2.1 2.2.3 6 .7 8.5 1 2.5.2 5.6.7 7 .9 1.4.2 5 .7 8 1 3 .3 6.9.8 8.5 1 1.7.2 5.3.6 8 1 2.8.3 6.6.8 8.5 1.1 1.9.2 5.8.7 8.5 1 2.8.3 6.1.7 7.5.9 1.4.2 5.4.6 9 1 3.6.4 6.8.9 7.2 1.1.3.2-1.1 4.5-3.2 9.4-2.1 5-4 9.4-4.1 9.8-.4 1.4-10.1 24.5-12.9 30.7-.5 1.1-1.9 4.2-3.1 7-1.2 2.7-3.4 7.7-4.9 11-1.5 3.3-3.7 8.2-5 11-5.8 12.9-9.2 19.9-21.9 45.5-13.8 27.7-22.5 44.6-28.7 55.3-1.9 3.2-3.4 6.2-3.4 6.8 0 .5-.4.9-1 .9-.5 0-1 .5-1 1.1 0 .6-2.8 5.9-6.2 11.7-3.3 5.9-6.9 12-7.8 13.7-9.2 16.1-28.3 46.5-43.1 68.5-10 15-34.9 50.4-37.7 53.5-.5.6-3.8 4.9-7.3 9.5-3.5 4.7-6.6 8.7-7 9-.3.3-3.3 4-6.6 8.2-7.4 9.3-19.6 24.2-23.4 28.3-1.5 1.6-8.3 9.3-15 17-14.5 16.3-49.6 51.8-65.4 66-17.2 15.4-17.3 15.5-29.9 25.9-26.9 22.1-62.4 47.2-91.6 64.6-28.7 17.1-58.1 31.2-99.5 47.5-1.1.4-2.4.9-3 1.1-.5.2-6.4 2.1-13 4.4-6.6 2.3-17.6 5.7-24.5 7.6-6.9 1.9-13.8 3.9-15.5 4.4-1.6.5-4.1 1.1-5.5 1.4-1.4.3-3.6.8-5 1.1-1.4.3-3.4.8-4.5 1-1.1.3-3 .7-4.2 1-5.9 1.3-10.6 2.3-14.8 3-1.6.3-4 .7-5.1.9-2 .4-7.1 1.3-11.9 2.1-1.1.2-4.2.6-7 .9-2.7.4-6.1.9-7.5 1.1-2.3.4-7.5 1-17.5 2-15.2 1.6-25.8 2-54.5 2-32.3 0-50.8-.9-65.6-3-1.7-.2-5.7-.7-8.9-1.1-3.2-.3-6.8-.8-7.9-1-1.2-.2-3.9-.6-6.1-.9-2.2-.3-5.1-.7-6.5-1-1.3-.3-4.2-.7-6.5-1-2.2-.3-4.7-.8-5.5-1-.8-.2-2.8-.7-4.5-1-1.6-.2-4.1-.7-5.5-1-1.4-.3-3.6-.7-5-1-6.5-1.2-25.1-5.6-36.5-8.6-4.4-1.1-8.7-2.2-9.5-2.4-6.9-1.8-22.4-6.7-24.2-7.6-1.3-.7-2.4-1.1-2.6-1-.2.2-5.7-1.4-12.2-3.4-.3-.1-1.2-.5-2-.8-1.4-.6-20.3-7.4-22.5-8.1-.5-.2-2.3-.8-3.8-1.4-1.6-.7-3-1.2-3.3-1.2-.8 0-27.3-11.1-42.9-18-9.7-4.3-62-30.5-62.3-31.2-.2-.4-.7-.8-1.2-.8-.4 0-4-1.8-7.9-4-3.8-2.2-8.6-4.9-10.5-6-8.1-4.5-10.7-6.1-24.6-14.4-8-4.8-14.8-9.1-15.2-9.4-.3-.4-.9-2.5-1.2-4.7-.7-4.4-1.1-6.5-2-11-.3-1.7-.8-4.1-1.1-5.5-.2-1.4-.8-3.9-1.2-5.5-.4-1.7-.7-3.5-.8-4 0-.6-.5-2.8-1-5s-.9-4.5-1-5c-.1-.6-.4-2.1-.8-3.5-.5-2.3-5.1-22.3-6.2-27.8-.3-1.2-.7-3-.9-4-.5-2-9.6-38.2-10-39.7-.2-.6-.6-2.4-1.1-4-.9-3.6-5.6-20.2-8.6-30.5-1.2-4.1-2.5-8.2-3-9.1-.4-.9-1-2.7-1.3-4-.9-4.9-12.6-38.8-16.7-48.4-.7-1.7-1.3-3.3-1.3-3.7-.1-.3-.4-1-.9-1.4-.4-.4-.7-1.3-.7-2 0-.8-1.1-3.8-2.5-6.8s-2.5-5.7-2.5-5.9c0-.6-6.2-14.1-11.7-25.7-4.7-9.7-16.5-30.9-21.4-38.3-2.2-3.2-3.9-6-3.9-6.3 0-.2-.6-1.2-1.4-2.1-.8-1-4-5.1-7-9.2-9.6-12.8-23.4-27.4-33.1-35.2-14.1-11.3-34.4-21.6-47.8-24.3-1.5-.4-3.7-.8-4.9-1.1-13.1-2.6-33.6-2.6-45.8.1-1.4.3-3.6.7-5 1-1.4.2-3.6.7-5 1.1-1.4.3-2.7.7-3 .7-.3.1-1.1.5-1.7.9-.7.5-1.3.6-1.3.3 0-.5-10.5 3-17.4 5.9-2 .9-3.9 1.6-4.3 1.7-1 .2-10.3 4.6-12.3 5.8-.8.5-3.4 1.9-5.7 3-13.7 6.9-37.3 22.6-53.8 35.8l-7.9 6.4-3.1-3.4c-1.6-1.9-6.4-7.2-10.6-11.9-4.2-4.6-8.9-10-10.5-11.8-1.6-1.9-3.8-4.4-4.9-5.6-1.1-1.1-4.7-5.2-8-9s-7.8-8.9-10-11.4c-5.3-5.9-23.2-27.1-37-43.6-5.9-7.2-11.2-13.1-11.6-13.3-.5-.2-.9-.8-.9-1.3 0-.6-3.5-5.1-7.8-10.2-7.4-8.8-24.9-30.3-64.4-79.2-9.8-12.1-18.4-22.7-19.1-23.5-.7-.8-2.9-3.5-4.8-6s-3.7-4.7-4-5c-.3-.3-4.6-5.5-9.4-11.5-4.9-6.1-9.1-11.2-9.4-11.5-.4-.3-2.2-2.5-4.1-5-1.9-2.5-4.4-5.6-5.6-7-1.2-1.4-16.9-20.5-34.8-42.5-18-22-33.4-40.9-34.4-42-1-1.1-12.8-15.3-26.3-31.5s-25.4-30.6-26.6-32c-1.2-1.4-11-13.1-21.9-26-20.8-24.7-90.4-106.1-91.4-107-.4-.3-11.9-13.3-25.6-28.9-24.1-27.6-75.2-84.9-83.8-94.1-2.3-2.5-9.1-9.9-15.1-16.5s-12.4-13.5-14.2-15.3c-1.8-1.8-3.3-3.4-3.3-3.6 0-.1-1.9-2.3-4.3-4.7-2.3-2.5-8.4-9-13.5-14.5s-11.8-12.8-15-16.1c-3.1-3.3-10.3-11-15.9-16.9-5.6-6-14.6-15.5-20-21.1-5.4-5.6-17.2-17.9-26.3-27.3-30.3-31.6-107.8-108.4-137.9-136.8-6.2-5.9-12.7-12.1-14.5-13.7-2.5-2.4-23.8-22.3-31.6-29.5-.9-.8-3.8-3.5-6.6-5.9-2.7-2.4-7.4-6.7-10.4-9.5s-9.1-8.3-13.5-12.1c-4.4-3.9-8.4-7.5-9-8.1-.5-.6-6.4-5.8-13-11.5s-12.2-10.6-12.5-10.9c-.3-.3-5.4-4.8-11.5-10-6-5.2-12.1-10.4-13.5-11.7-2.2-1.9-14.7-12.4-20.5-17.2-1.1-.9-7.2-5.9-13.5-11.1-21-17.5-59.3-48-68.5-54.5-1.6-1.1-3.3-2.5-4-3.1-2.3-2.3-40.6-30.5-60.7-44.7-34.8-24.5-73.9-50-102.3-66.7-4.9-2.9-10.1-6-11.5-6.9-3.7-2.3-10-5.9-14-7.8-1.9-.9-3.7-2-4-2.4-1.3-1.7-61.7-32.6-74-37.8-4.1-1.8-8.4-3.6-9.5-4.1-1.1-.5-4.5-1.9-7.5-3.1-3-1.2-6.8-2.7-8.5-3.4-1.6-.6-4.6-1.8-6.5-2.5-1.9-.6-4.4-1.6-5.5-2.1-1.1-.5-4.7-1.8-8-2.9-3.3-1.2-6.9-2.5-8-3-1.1-.4-3.6-1.3-5.5-2s-4.4-1.6-5.5-2c-2.5-1.1-19.7-7.1-21-7.4-.5-.2-1.7-.5-2.5-.8-5.9-2.2-14.5-5.1-15.4-5.2-.6-.1-2.4-.7-4.1-1.3-2.9-1.2-20-6.5-22-6.9-.5-.1-3-.9-5.5-1.7-4.1-1.4-11.9-3.7-14.5-4.3-.5-.1-3.7-1-7-2s-6.4-1.9-7-2c-.5-.2-7.1-1.9-14.5-3.9-7.4-2.1-14.2-3.9-15-4-.8-.2-3-.8-4.7-1.4-1.8-.5-3.3-.8-3.3-.6 0 .3-1.1 0-2.4-.5-2.4-.9-34.8-8.6-39.9-9.4-1.5-.3-3.5-.7-4.5-1-.9-.3-2.8-.7-4.2-1-1.4-.2-7.2-1.4-13-2.5-5.8-1.2-11.8-2.4-13.5-2.6-1.6-.3-4.1-.8-5.5-1-4.9-1-7.5-1.5-11-2-2-.3-4.7-.8-6-1-1.4-.3-4.1-.7-6-1-1.9-.3-4.6-.7-6-1-1.4-.3-4.3-.7-6.5-1-2.2-.3-5.1-.7-6.4-1-1.4-.2-4.7-.7-7.5-1-2.8-.3-5.8-.8-6.6-1-.8-.2-4.2-.7-7.5-1-3.3-.3-7.2-.7-8.5-1-1.3-.3-5.2-.7-8.5-1-3.3-.3-7.1-.8-8.5-1-2.5-.4-14.1-1.5-21-2l-3.6-.3-.3 16.2c-.2 8.8-.4 45.3-.4 81.1 0 76.7 1.1 129.1 3.9 188 .2 5.5.6 14.7.8 20.5.3 5.8.7 14.8 1.1 20 .3 5.2.8 13.3 1 18 .6 9.6 1.4 22.4 2.1 32 .2 3.5.7 10 .9 14.5.7 10.6 1.3 18.7 1.9 26 .3 3.3.8 9.8 1.1 14.5.4 4.7.8 10.3 1.1 12.5.4 3.8 1.2 14 1.9 23 .6 8.3 1.6 19.1 2.1 22.5.2 1.9.6 6.2.9 9.5.2 3.3.7 7.6.9 9.5.3 1.9.8 7.1 1.1 11.5.4 4.4.8 9.3 1.1 11 .4 3 .9 7.4 1.9 19 .3 3.3.8 7.1 1 8.5.3 1.4.7 5.4 1.1 9 .3 3.6.8 7.8 1 9.5.6 5 2.5 20.7 3 25.5.4 4.2 1 9 1.9 15 .2 1.4.6 5.2 1 8.5.3 3.3.8 6.7 1 7.5.2.8.7 4.2 1.1 7.5.3 3.3.8 6.9.9 8 .2 1.1.6 4 .9 6.5.7 5.1 1.6 11.3 2.1 15 .2 1.4.6 5.2 1 8.4.3 3.2.7 6.2.9 6.5.2.3.7 3.1 1.1 6.1.3 3 .8 6.6 1 8 .2 1.4 1.3 8.8 2.4 16.5 1.2 7.7 2.4 15.6 2.7 17.5.3 1.9 1.4 9.1 2.6 16 1.1 6.9 2.1 13.6 2.3 15 .5 3.9 2.4 15.7 3.9 23.5.2 1.1.7 4.2 1 6.8.4 2.7.9 5.9 1.2 7 .4 2.1 3 17 3.9 22.7.3 1.4 1.8 9.9 3.5 19s3.3 17.8 3.5 19.5c.3 1.6.7 4.1 1 5.5.4 1.4.9 4.1 1.2 6 .3 1.9 1.8 10 3.5 18 1.6 8 3.1 15.4 3.2 16.5.2 1.1.8 4.5 1.4 7.5.6 3 1.3 6.6 1.6 8 .3 2.2 14.4 68.8 15 71.5.2.5.6 2.1.9 3.5.5 2 7.8 34.4 9.2 41 .2.8.8 3.5 1.4 6 .7 2.5 1.4 5.6 1.7 7 .6 3 8.1 34.5 9.1 38 .3 1.4.7 2.9.9 3.5.2.5.5 1.9.7 3 .3 1.1 1.7 6.7 3.2 12.5 1.4 5.8 2.8 11.2 3 12 .2 1.2 5.6 22.4 7 28 .2.8 1.2 4.2 2.1 7.5.9 3.3 1.7 6.7 1.9 7.5.9 4.2 21.4 78.2 25.4 91.5 1.7 5.5 3.1 10.2 3.1 10.5.2 2.1 20.2 67.8 26.6 87.5 3.1 9.3 5.7 17.4 5.8 18 .2 1.1 9.4 30.1 10.3 32.5.3.8 4.3 12.5 8.9 26 15.1 44.4 17.2 50.3 24.9 71.5 4.2 11.5 7.8 21.7 8 22.5.3 1.3 8.2 22.3 20 53.5 1.9 4.9 3.5 9.4 3.6 10 .1.5.8 1.9 1.5 3 .8 1.1 1.4 2.6 1.4 3.5 0 .8.6 2.6 1.3 4 .7 1.4 2.1 4.7 3.1 7.5 3.7 9.9 31 78.1 34.1 85 .7 1.6 4.6 10.9 8.5 20.5 4 9.6 7.7 17.9 8.1 18.4.5.6.9 1.6.9 2.2 0 .7 1.6 4.7 3.5 8.8 1.9 4.2 3.5 7.8 3.5 8.1 0 .4 1 2.7 7 16 2.2 4.8 5.1 11.3 14 31.5 2.2 5.2 5 11.3 6 13.5 1 2.2 7.3 15.9 14 30.5 12 26 15.2 32.9 29.2 62 9.8 20.4 44 88.7 52.7 105.5 4.1 7.7 10.1 19.2 13.4 25.5 8.7 16.7 33.1 61.9 36.7 67.9 1.6 2.9 3 5.3 3 5.5 0 .2 3.6 6.8 8 14.7 4.4 7.8 8 14.3 8 14.5 0 .1 1.9 3.5 4.3 7.6 2.4 4 5.5 9.3 6.9 11.8 5.7 10.2 7.5 13.3 18.1 31.5 17.1 29.6 55.5 93.5 59.7 99.5.6.8 2.1 3.2 3.3 5.3 1.2 2 5.4 8.7 9.2 14.8 3.9 6.1 7.7 12.1 8.5 13.5 8.4 13.7 35.4 55.2 55.9 85.7 8 12 15.3 22.9 16.1 24.2.8 1.3 5.7 8.4 10.8 15.9 5.1 7.5 10.7 15.7 12.5 18.4 1.7 2.6 3.4 4.9 3.7 5.2.3.3 3.7 5 7.5 10.5s7.3 10.4 7.7 11c.4.5 10 14 21.4 29.9 11.3 15.9 22.7 31.8 25.3 35.2 2.5 3.4 5.5 7.5 6.6 9 8.6 11.9 51.8 68.9 64.8 85.4.7.9 3.4 4.5 6.2 8 9.9 12.9 62.2 78 71.9 89.5 3.2 3.9 6.5 7.9 7.5 9 3.9 4.9 16.7 20.1 18.1 21.7.8.9 2 2.3 2.5 3 .6.7 5.1 6 10.1 11.8 4.9 5.8 10.1 11.8 11.4 13.4 3.3 3.9 22.7 26.3 26.1 30.1 1.5 1.6 8 9.1 14.5 16.5 11.9 13.5 14.6 16.5 23.9 26.8 2.8 3.1 5.9 6.6 7 7.8 5.9 6.6 22.8 25.1 29 31.8 8.5 9.1 27.5 29.5 30.8 33 51.8 55.4 133.5 136.7 191.6 190.6 9 8.4 17.8 16.4 25.1 23 4.6 4.1 9 8.2 9.9 9.1 2 1.9 11.7 10.8 23.6 21.4 4.9 4.4 11.4 10.2 14.5 13 6.8 6.1 13 11.5 20 17.5 2.8 2.5 6.8 6 8.9 7.9 4 3.7 5.7 5.1 32.6 28.1 10.5 8.9 21 17.9 23.5 20 4.6 4 29.7 24.9 31.5 26.3.6.4 2.4 1.9 4 3.3 1.7 1.4 4.6 3.7 6.5 5.2 1.9 1.5 4 3.2 4.6 3.8.6.5 3.1 2.6 5.4 4.5 2.3 1.8 4.7 3.9 5.4 4.4.6.6 3.1 2.6 5.6 4.5 2.5 1.9 7.2 5.7 10.6 8.5 3.3 2.7 7.6 6.2 9.5 7.7 1.9 1.5 5.5 4.3 7.9 6.2 2.5 2 7 5.5 10 7.9 3 2.3 5.7 4.5 6 4.8.3.3 12.4 9.8 27 21.1 50.3 38.8 100 75.6 146.5 108.3 4.4 3.1 12.3 8.7 17.5 12.4 9.2 6.5 44.4 30.7 52.5 36.1 2.2 1.5 9.3 6.2 15.8 10.6 6.5 4.3 12.6 8.3 13.5 8.9.9.5 1.9 1.2 2.2 1.5.5.5 12.5 8.5 24.5 16.2 3.9 2.5 12.2 7.9 18.5 12 19.8 12.9 40.5 26 77.5 48.8 23.7 14.6 64.4 39 65.1 39 .3 0 1 .5 1.7 1 4.2 3.7 111 64 145.7 82.2 5.8 3.1 12.5 6.7 15 8 2.5 1.4 10.8 5.8 18.5 9.8 7.7 4 18.7 9.8 24.5 12.8 14 7.3 80.3 40.5 96 48 19.6 9.4 33.9 16.1 42 20 4.1 1.9 12.6 5.9 18.8 8.8 6.3 3 11.5 5.4 11.7 5.4.2 0 4.8 2.1 10.2 4.6 5.4 2.6 13.6 6.3 18.3 8.4 4.7 2.1 11 4.9 14 6.3 3 1.3 12.9 5.7 22 9.7 9.1 3.9 17.9 7.8 19.5 8.5 1.7.8 12.5 5.4 24 10.3 19 8.1 30.7 13 61 25.4 5.5 2.2 11.4 4.6 13 5.3 19.8 8.3 107.2 42.1 111 43 .6.1 2.3.7 3.8 1.3 1.6.7 3.1 1.2 3.4 1.2.3 0 1.9.6 3.6 1.4 2.8 1.3 54.7 19.8 72.2 25.7 3.3 1.2 6.9 2.5 8 3 2.9 1.2 64.8 21.6 87 28.7 32.6 10.4 65 20.4 67.1 20.8.9.1 15.8 4.6 31.4 9.4 17.5 5.3 91.5 25.8 107 29.6.8.2 7.6 1.9 15 3.9s14.4 3.8 15.5 4.1c1.1.2 4.7 1.1 8 2 6.2 1.6 12.2 3 16.4 4 1.4.3 2.8.7 3.1.9.4.2 2 .7 3.6.9 3.5.7 3.5.7 19.4 4.6 23.6 5.7 46.5 11.1 49 11.6 1.4.3 3.3.7 4.2 1 1 .3 2.9.7 4.2 1 1.3.2 8.4 1.8 15.7 3.5 7.4 1.7 14.3 3.2 15.4 3.5 4.5.9 12.1 2.5 14.5 2.9 1.4.3 3.4.7 4.5 1 9 2 46.1 9.7 53.5 11.1 1.4.3 6.8 1.3 12 2.4 16.3 3.3 31.4 6.2 33.5 6.5 1.1.1 6.1 1 11 2 5 .9 10.1 1.9 11.5 2.1 1.4.3 7.2 1.3 13 2.4 5.8 1.1 12.8 2.2 15.5 2.6 2.8.3 5.2.8 5.5.9.3.2 5 1.1 10.5 2 5.5.9 11.1 1.8 12.5 2.1 3 .5 38.3 6.3 42 6.8 1.4.3 4.5.8 7 1.1 2.5.4 5.4.9 6.5 1.1 1.1.2 4 .6 6.5.9 2.5.3 5.9.8 7.5 1.2 1.7.3 4.1.7 5.5.8 3 .4 30.4 4.3 34 5 2.5.4 15.1 2.1 22.5 3 7.8 1 12 1.6 14.5 2 1.4.3 4.8.7 7.5 1 2.8.3 5.9.7 7 .9 2.8.5 14.6 2 25 3.1 4.8.5 14.6 1.7 25 3 2.8.4 7 .9 9.5 1.1 2.5.3 6.1.7 8 .9 1.9.2 6.2.6 9.5 1 3.3.3 7.6.8 9.5 1 9.9 1.1 13.9 1.6 17.5 2 2.2.3 7.2.7 11 1 7.6.6 14.8 1.3 21 2 2.2.3 6.7.7 10 1 3.3.3 8.5.8 11.5 1 10.5 1 15.5 1.5 21 2 3 .2 9.1.7 13.5 1 4.4.3 8.9.7 10.1.9 1.2.2 7 .7 13 1.1 13 .7 20.4 1.2 44.4 3 3.6.3 10.6.7 15.5 1 5 .2 13.5.7 19 1.1 16 .9 20.1 1.2 35.5 1.8 8 .4 18.6.9 23.5 1.1 86.3 4.1 218.1 5 311 2 44.4-1.4 70.8-2.6 113.5-5 5.2-.3 13.4-.8 18.3-1 11.3-.7 27.9-1.8 43.7-3 3-.2 9.6-.7 14.5-1 5-.4 10.6-.8 12.5-1 15.7-1.5 19.6-1.8 36.5-3 4.4-.4 9.4-.8 11-1 1.7-.2 5.9-.6 9.5-.9 3.6-.4 8.5-.9 11-1.1 2.5-.2 7.4-.7 11-1 3.6-.3 8.8-.8 11.5-1.1 2.8-.3 6.6-.7 8.5-.9 1.9-.2 5.8-.6 8.5-.9 2.8-.4 7.5-.9 10.5-1.2 12.8-1.2 14.7-1.4 19.5-1.9 2.8-.3 8.4-1 12.5-1.5 4.1-.6 9.8-1.2 12.5-1.6 2.8-.3 6.1-.7 7.5-.8 1.4-.2 5.4-.7 9-1.1 3.6-.4 7.6-.8 9-1 5.2-.7 12.6-1.7 15-2 1.4-.2 8.1-1.1 15-2 16.4-2.1 18.9-2.4 22.5-3 1.7-.3 5-.7 7.5-1 2.5-.3 5.6-.7 7-1 1.4-.3 4.5-.7 7-1 2.5-.3 5.6-.7 7-1 1.4-.3 4.3-.7 6.5-1 3.8-.4 16.2-2.2 21.5-3 1.4-.3 7-1.2 12.5-2 5.5-.9 11.1-1.8 12.5-2 3.6-.5 9.1-1.4 22-3.5 6.3-1 13.1-2.1 15-2.4 4-.7 6.3-1.1 18-3.2 4.7-.9 10.1-1.8 12-2 1.9-.3 4.6-.7 6-1 3.9-.8 13.3-2.5 15.5-2.8 3.3-.5 10.8-1.8 13-2.2 8.5-1.8 12.4-2.6 15-2.9 3.9-.5 40.7-7.7 59.5-11.6 8-1.7 15.6-3.3 17-3.5 1.4-.3 5.7-1.2 9.5-2 3.9-.8 12.4-2.6 19-4s12.9-2.7 14-2.9c1.1-.3 3.1-.7 4.5-1 4.8-1 6.7-1.4 28.7-6.4 12.1-2.8 27.9-6.4 35-8.1 7-1.8 17.3-4.2 22.8-5.5 5.5-1.3 17.3-4.1 26.1-6.4 8.9-2.2 17.3-4.2 18.5-4.5 3.7-.8 24.9-6.4 54.4-14.3 7.2-1.9 13.7-3.6 14.5-3.8 2-.4 26-7.1 34-9.4 8-2.4 25-7.1 27-7.6.8-.2 4.4-1.3 8-2.3 3.6-1.1 13.5-4 22-6.5s26.5-8 40-12.2c13.5-4.1 25-7.7 25.5-7.8 11.3-3.2 115.8-38 135.5-45.2 4.1-1.5 8-2.8 8.5-3 .6-.1 2.3-.7 3.8-1.3 1.6-.7 3.1-1.2 3.4-1.2.2 0 6.4-2.2 13.6-4.9 7.3-2.7 15.2-5.6 17.7-6.5 2.5-.8 10.6-3.8 18-6.6s17.3-6.5 22-8.1c7.6-2.8 11.1-4.1 17.5-6.9 2.5-1.1 11.7-4.6 26-10 11.1-4.1 23.4-9.1 29-11.5 1.7-.8 7.2-3 12.3-4.9 5.2-2 10.8-4.2 12.5-5 1.8-.7 9.5-4 17.2-7.1 17-7 18.5-7.6 25.7-10.8 3.1-1.4 5.9-2.3 6.2-1.9.3.3.6.1.6-.5 0-.5.6-1 1.3-1 1-.1 42.2-17.7 54.7-23.5 2.5-1.1 10.6-4.7 18-8 15.4-6.8 20.3-9 28-12.5 3-1.4 8.2-3.8 11.5-5.3 8-3.7 18.5-8.5 27-12.5 24.7-11.7 32.6-15.4 46-21.8 16.5-7.9 105.9-52.8 119.5-59.9 8.7-4.6 15.8-8.4 33.5-17.8 9.2-4.9 20.6-11 37.5-20.3 3.6-1.9 16-8.8 27.5-15.2 11.6-6.5 22.8-12.7 25-13.9 2.2-1.1 4.2-2.3 4.5-2.6.6-.6 3.1-2 11-6.3 3-1.7 7.1-4 9-5.2 1.9-1.2 4.2-2.5 5-2.8.8-.4 2.9-1.5 4.5-2.6 1.7-1 4.6-2.7 6.5-3.8 10.3-5.9 66.8-39.5 71.5-42.5 1.7-1 13.6-8.4 26.5-16.3 12.9-8 24.2-14.9 25-15.5 4.8-3.3 15.1-9.8 16.2-10.4.7-.3 7.4-4.5 14.9-9.3 7.4-4.9 17-11.1 21.3-13.8 11.7-7.6 64.7-42.8 76.6-51 19.9-13.6 27.5-18.9 41-28.4 7.4-5.2 15.5-10.8 18-12.5 2.5-1.7 5-3.4 5.5-3.8.6-.5 6.6-4.8 13.5-9.7 26.9-19.2 48.4-35.1 84.3-62 34.4-25.8 31.9-23.9 36.7-27.9 1.9-1.5 8.5-6.6 14.5-11.3 6.1-4.6 11.7-8.9 12.5-9.6.8-.7 6.7-5.3 13-10.3 6.3-5 12.2-9.6 13-10.3.8-.7 4.9-3.9 9-7.2 4.1-3.2 13.6-10.9 21-16.9 7.4-6.1 14.2-11.6 15-12.3 3.6-2.8 32.3-26.7 45.9-38.2 4.2-3.4 9.6-7.9 12-10 2.4-2 5.5-4.7 7-6.1 1.4-1.4 3.9-3.6 5.5-4.8 2.8-2.2 12.7-10.7 17.2-14.7 1.2-1.1 4.8-4.3 8-7 3.1-2.8 6.2-5.5 6.8-6 .6-.6 2.9-2.6 5.2-4.5 12.4-10.8 23.4-20.6 38.9-34.5 4.8-4.4 9.3-8.5 9.9-9 11.6-10.3 36.7-33.5 52.6-48.5 6.3-5.9 13.5-12.7 16-15 35.5-33 122.1-119.6 159.5-159.4 2.6-2.7 26.4-28.1 32-34.1 1.1-1.2 6.3-6.8 11.5-12.5s10.2-11.1 11-12c10.7-11.6 31.8-35.2 58.4-65.4 3.4-3.8 7-7.9 8.1-9.2 1.1-1.2 3.6-4.1 5.5-6.4 1.9-2.4 4-4.8 4.6-5.4.6-.6 5.4-6.3 10.8-12.6s11.8-13.8 14.1-16.5c5.1-5.8 35.3-42 40.5-48.4 1.9-2.4 6.7-8.2 10.5-13 3.9-4.7 10.9-13.3 15.5-19.1 4.7-5.8 8.9-11 9.5-11.7.5-.6 2.1-2.6 3.5-4.4 3.2-4.2 11.6-14.8 13.8-17.4.9-1.1 4.6-5.8 8.2-10.4 21.2-27.3 60.2-78.5 64-84.1.8-1.2 2-2.8 2.5-3.4 5.2-5.8 58.8-80.7 88.5-123.6 6.3-9.2 58.9-88.1 61.5-92.3.6-.9 6-9.3 12-18.7 6.1-9.3 11.5-17.7 12-18.7.6-.9 4.2-6.6 8.1-12.7 3.8-6.1 10.1-16.2 14-22.5 3.8-6.2 7.8-12.8 8.9-14.6 3.6-5.7 21-34.4 22-36.2.6-1 4.8-8.1 9.4-15.8 4.6-7.7 10-16.7 11.9-20 1.9-3.3 4.2-7.4 5.2-9 4.9-8.4 40-69.9 40-70.1 0-.2 3.1-5.9 6.9-12.6 10.1-18.3 13.2-23.8 16.1-29.3 6-11.2 12.4-23.3 14.7-27.4 2.6-4.6 11.1-21 24.5-46.6 14.7-28.3 50.7-101.1 63.8-129 2.1-4.4 5.6-11.8 7.8-16.5 11.2-23.8 29.7-64.8 50.2-111.5 6-13.8 17-39.6 17-40.1 0-.3 1-2.9 2.3-5.7 1.3-2.9 6.1-14.4 10.6-25.7 4.6-11.3 8.7-21.2 9.1-22.1 1.4-2.7 16.8-41.8 20.7-52.4 1.4-3.9 3.3-8.8 4.3-11 2.9-6.7 23-60.6 28.7-77 1.9-5.5 3.8-10.9 4.3-12 .5-1.1 1.6-4 2.5-6.5.9-2.5 3.6-10.4 6.1-17.5 2.5-7.2 5-14.6 5.6-16.5.6-1.9 1.4-4 1.8-4.5.5-.6.8-1.2.9-1.5 0-.3.2-1.2.5-2s6.7-20.2 14.2-43c7.4-22.8 13.8-42.2 14.1-43 .3-.8.7-2 .8-2.5.2-.6 2.8-8.9 5.8-18.5 6.5-20.3 14.9-47.9 21.4-70 2.5-8.5 5.4-18.4 6.4-22 2.3-7.7 1.5-4.9 8.4-29.5 3.1-11 5.9-20.9 6.2-22 .3-1.1 1.8-6.8 3.5-12.7 1.6-6 3.1-11.6 3.3-12.5.2-1 1.3-5.3 2.5-9.5 1.1-4.3 2.3-8.5 2.5-9.5.2-1 1.1-4.5 2-7.8.9-3.3 2.6-9.4 3.6-13.5 1.1-4.1 2.1-8.3 2.4-9.3.3-.9.7-2.6 1-3.8.2-1.1.7-2.9 1-3.9.3-1 .7-2.7.9-3.7.2-1 1.4-5.6 2.6-10.3 1.2-4.7 2.3-9.2 2.5-10 .2-.8 2.2-9.4 4.5-19s4.4-18.5 4.6-19.7c.2-1.2.9-3.4 1.4-4.9.6-1.5.8-2.9.6-3.1-.3-.3 0-1.7.6-3.2.5-1.4 1.2-3.5 1.4-4.6 1.2-6.3 4.6-21.6 5.5-24.9.6-2.2 1.3-4.9 1.5-6 .2-1.2.7-3.5 1.1-5.1.4-1.7.7-3.2.8-3.5.2-.8 1.8-8.5 2-9 0-.3.4-2.1.8-4 1.3-6.4 1.5-7.5 2.7-12.5 1.3-5.6 13.5-65.4 15.4-75.5.3-1.4.8-3.6 1.1-5 .3-1.4.8-3.6 1-5 .2-1.4 1.4-7.5 2.5-13.5 1.2-6.1 2.4-12.4 2.6-14 .6-3.7.7-3.9 3.8-20.5 2.7-14.7 5.5-30.7 6.2-35.5.3-1.7.9-5.3 1.5-8 .5-2.8 1.1-6.5 1.4-8.3.2-1.8.6-4.5 1-6 .3-1.5.7-4.1 1-5.7.2-1.7.6-4.1.9-5.5.2-1.4.7-4.8 1.1-7.5.3-2.8.8-5.7 1-6.5.2-.8.6-3.3 1-5.5.3-2.2 1.2-8.3 2.1-13.5.8-5.2 1.7-11.1 2-13 .3-1.9.7-4.6.9-6 .2-1.4.7-4.5 1-7 .3-2.5 1.1-7.4 1.6-11 .6-3.6 1.2-7.9 1.4-9.5.2-1.7.7-5 1.1-7.5.4-2.5.8-5.4.9-6.5.2-1.1.6-3.8.9-6 .3-2.2.8-5.8 1.1-8 .2-2.2.7-5.6 1-7.5.3-1.9.7-5.5 1-8 .3-2.5 1.2-9.2 2-15 .8-5.8 1.7-13.2 2.1-16.5.3-3.3.8-6.2.9-6.5.2-.3.6-4.1 1-8.5.6-7.8 1.1-11.5 2-16.5.2-1.4.7-5 1-8 .3-3 .7-6.6.9-8 .3-1.4.8-5.9 1.1-10 .8-8.9 1-10.6 2-18.5.4-3.3.9-7.6 1-9.5.2-1.9.6-6.7 1-10.5.4-3.9.8-8.1 1-9.5.1-1.4.6-6.1 1-10.5s.9-9.4 1.1-11c.2-1.7.6-6.2.9-10 .3-3.9.8-8.6 1-10.5.2-1.9.7-7.8 1-13l.6-9.5-7.2-5.5c-3.9-3-8.1-6.3-9.3-7.3-9.7-8-55.2-40.7-56.6-40.7-.5 0-1-.5-1-1 0-.6-.6-1-1.4-1-.8 0-1.6-.4-1.8-.9-.1-.5-5-3.9-10.8-7.7-5.8-3.7-10.6-7.2-10.8-7.6-.2-.4-.7-.8-1.2-.8s-6.8-3.8-14.2-8.4c-14.7-9.2-37.9-22.9-50.3-29.6-9.7-5.2-43.6-22.6-45-23-.5-.2-5.6-2.5-11.3-5.2-5.7-2.6-10.5-4.8-10.7-4.8-.3 0-2.8-1.1-5.7-2.4-5.5-2.4-8.9-3.8-9.8-4-.3-.1-1.4-.7-2.5-1.3-5.3-2.9-62-23.2-69.7-24.9-1-.2-2.6-.6-3.5-.9-19.9-5.6-27.2-7.6-28.8-7.9-1.1-.3-5.1-1.2-9-2.1-3.8-.9-8.1-1.9-9.5-2.1-1.4-.3-3.3-.7-4.2-1-1-.3-2.8-.7-4-1-1.3-.2-3.4-.6-4.8-.9-1.4-.3-4.1-.8-6-1.1-1.9-.2-4.8-.8-6.5-1.1-4-.9-5.3-1.1-10-1.8-2.2-.3-4.9-.7-6.1-.9-1.2-.2-4.5-.7-7.4-1.1-2.9-.4-6-.8-6.9-1-.9-.1-5-.6-9.1-1s-8.8-.9-10.5-1.1c-14.5-1.4-27.7-1.9-56.5-1.9-28.9 0-41.6.5-55.5 1.9-1.6.2-5.9.6-9.5 1-3.6.3-7.6.8-9 1-1.4.3-4.7.7-7.5 1.1-4.5.5-9.5 1.3-19 3-1.6.2-5 .8-7.5 1.1-2.5.3-4.8.8-5.1 1-.4.2-2.4.6-4.5.9-2.2.4-4.7.8-5.6 1.1-1.9.6-5.3 1.3-8.8 2-2.2.4-5.7 1.2-8.5 2-1.3.4-5.1 1.3-7.3 1.8-.9.2-3.7 1-6.2 1.7s-4.9 1.4-5.5 1.5c-.5.2-2.3.6-3.9.9-1.6.3-3.3.8-3.8 1.1-.4.3-1.8.7-3 .9-2.3.5-5.1 1.4-18.8 6-4.1 1.4-8.2 2.8-9 3-5.7 1.5-28.8 10.1-36.7 13.6-2.3 1.1-4.4 1.9-4.7 1.9-.3 0-3.5 1.3-7.1 3-3.6 1.6-6.7 3-7 3-1.5 0-42.7 20.1-56.5 27.6-13 7-36.4 20.6-37 21.4-.3.3-1.2.9-2.2 1.3-1.6.6-11.5 6.9-27.8 17.6-4.6 3.1-9.2 6-10.1 6.6-2.3 1.4-19.9 13.8-27.9 19.8-3.6 2.6-7.6 5.6-8.8 6.5-9.2 6.6-43 33.3-48.7 38.4-1.6 1.5-8.4 7.3-15 12.9-10.3 8.8-21 18.3-36.9 32.9-2.1 1.9-17.4 16.9-33.9 33.2-16.5 16.4-30.1 29.8-30.1 29.8-.1 0-.1-4.8-.2-10.8 0-5.9-.4-13.5-.8-17-.8-7-6.2-27-7.8-28.9-.6-.7-.8-1.3-.5-1.3.3 0-1.2-3.6-3.4-8-14.9-30.6-40.4-53.4-72.6-64.9-4.6-1.7-8.3-2.8-8.3-2.5 0 .3-.8 0-1.7-.5-3.7-1.9-17-3.5-29.8-3.5-9.2 0-13.8.4-24.3 2-4.3.6-15 3.2-17.2 4.1-.8.3-1.7.7-2 .8-.3.1-2.5.7-5 1.5-2.5.7-4.9 1.7-5.4 2.2-.6.4-1.6.8-2.2.8-.7 0-2.5.5-4.1 1.2-1.5.6-3.2 1.2-3.8 1.4-.9.2-10.5 3.6-14.5 5.1-.8.3-1.9.7-2.5.9-1.4.3-13.8 4.9-20.5 7.4-3 1.2-6.2 2.3-7 2.5-1.8.4-23.8 8.2-26 9.2-.8.3-1.7.7-2 .8-2 .5-11.7 3.9-12.5 4.4-.5.3-1.4.6-2 .7-1 .2-19.7 6.8-24.5 8.6-1.4.5-2.6.9-2.7.9-.1.1-3.3 1.2-7 2.6-3.7 1.3-10.6 3.8-15.3 5.4-4.7 1.6-10.1 3.6-12 4.4-1.9.7-8.9 3.2-15.5 5.5-10.8 3.7-23.5 8.2-27.5 9.7-.8.3-1.9.7-2.5.9-1.8.5-12.9 4.5-15 5.4-1.1.5-4 1.5-6.5 2.3-2.5.8-9.7 3.4-16 5.7-19.7 7.1-25.3 9.1-31 11-3 1-8.2 2.9-11.5 4.1-11.3 4.1-28 10-29 10.3-.5.1-2 .8-3.2 1.4-1.3.7-2.3 1-2.3.8 0-.3-2 .3-4.5 1.4-2.5 1.1-4.9 2-5.3 2.1-1.3.3-3.6 1.1-7.7 2.6-2.2.8-6 2.2-8.5 3-5 1.6-17.4 6.1-20.5 7.4-1.1.4-4 1.5-6.5 2.3-2.5.8-9.7 3.3-16 5.6-25 9-31.6 11.2-33.8 11.7-1.2.3-2.5.9-2.8 1.4-.3.5-1.4.9-2.5.9s-3 .5-4.2 1.2c-1.2.7-2.6 1.3-3.2 1.4-.5.1-3.5 1.1-6.5 2.2s-9.5 3.4-14.5 5.2c-4.9 1.7-10.6 3.7-12.5 4.5-5.7 2.2-7.4 2.8-8.8 3.1-.8.1-2.1.6-3 1-.9.4-2.1.8-2.7 1-1.6.5-9.8 3.4-11.5 4.1-.8.3-1.9.7-2.5.9-.5.1-5.5 1.9-11 3.9-5.5 2.1-11.8 4.3-14 5-2.2.8-8.5 3-14 5s-12 4.4-14.5 5.2c-2.5.8-5.2 1.7-6 2-4.4 1.7-21.9 7.9-31.5 11.3-6 2.1-15.5 5.5-21 7.5s-10.4 3.8-11 3.9c-1.2.3-3.6 1.2-8.5 3.1-1.9.8-5.3 1.9-7.5 2.6-2.2.6-4.6 1.7-5.4 2.3-.8.6-1.7 1-2 1-.7-.2-.8-.2-10.6 3.2-4.4 1.5-8.8 3.1-9.8 3.6s-3 1.2-4.4 1.4c-1.4.3-3.9 1.2-5.4 2-1.6.8-2.9 1.2-2.9.9 0-.3-1 0-2.2.7-1.3.7-2.5 1.3-2.8 1.3-1.2.2-5.8 1.7-9 3-1.9.7-8.2 3-14 5-5.8 2-11.3 4.1-12.2 4.6-1 .5-2.4.9-3.2.9-.7 0-3.1.8-5.2 1.7-2.2.9-4.2 1.7-4.6 1.7-.3.1-1 .4-1.4.8-.4.5-1.3.8-2 .8s-2.5.5-4.1 1.2c-1.5.6-3 1.2-3.3 1.3-1.9.4-11.7 3.9-12.5 4.4-.5.3-1.3.6-1.7.7-.5.1-.9.2-1 .4-.2.1-1 .3-1.8.5-1.5.3-23.2 8-26 9.2-.8.3-1.8.7-2.2.8-.5.2-.9.3-1 .5-.2.1-1 .3-1.8.5-2.9.7-23.9 8.4-25.9 9.5-1.2.6-2.1.9-2.1.6 0-.2-2.8.7-6.2 2-3.5 1.4-7 2.7-7.8 2.9-1.7.4-15.5 5.2-18.5 6.5-1.1.4-4 1.5-6.5 2.3-3.9 1.3-24.5 8.7-29 10.4-.8.3-1.9.7-2.5.8-1.2.3-40.6 14.4-45.5 16.2-.8.4-1.7.7-2 .8-2 .5-11.7 3.9-12.5 4.4-.5.3-1.2.6-1.5.6-1.6.2-8.7 2.9-9.7 3.8-.7.5-1.3.7-1.3.4 0-.3-3.7.8-8.2 2.5-4.6 1.6-14.4 5.2-21.8 7.8-7.4 2.6-20.7 7.3-29.5 10.5-8.8 3.1-19.1 6.8-23 8.1-3.8 1.4-9.2 3.4-12 4.4-11.6 4.1-19.4 7-26 9.4-3.9 1.4-7.3 2.6-7.7 2.6-.4 0-1.9.5-3.5 1.2-1.5.6-3.2 1.2-3.8 1.4-3.3 1-16.3 5.6-18 6.3-3.6 1.6-8.4 3.3-9.2 3.3-.7 0-6.5 2.1-11.8 4.3-1.1.5-2.3.9-2.7 1-.5.2-.9.3-1 .5-.2.1-1 .3-1.8.5-.8.1-4.2 1.3-7.5 2.5s-9.1 3.3-13 4.7c-3.8 1.3-7.9 2.8-9 3.3-1.1.5-6.3 2.3-11.5 4.1-5.2 1.7-10.3 3.6-11.3 4.1-1 .5-2.6 1.1-3.5 1.3-1.7.4-26.3 8.9-29.2 10.2-.8.3-1.9.7-2.5.9-1.5.3-15.7 5.4-18 6.4-1.1.4-6.7 2.5-12.5 4.5s-11.2 3.9-12 4.2c-.8.4-1.7.7-2 .8-.3.1-1.2.4-2 .7-.8.4-6.9 2.5-13.5 4.8s-15 5.2-18.7 6.6c-3.8 1.3-9.9 3.5-13.8 4.9-3.8 1.4-10.1 3.6-14 5-3.8 1.4-10 3.6-13.7 4.9-3.8 1.4-14.7 5.2-24.3 8.6-9.6 3.4-20.5 7.3-24.2 8.7-3.7 1.3-7 2.4-7.3 2.4-.2 0-2.6.9-5.2 2-2.7 1.2-5.5 2.2-6.3 2.4-.8.2-7.3 2.5-14.5 5-7.1 2.6-14.1 5.1-15.5 5.5-1.4.5-6.3 2.3-11 4-4.7 1.7-10.1 3.6-12 4.2-1.9.5-3.9 1.3-4.5 1.6-.5.4-1.4.7-2 .8-.5.1-3.5 1.1-6.5 2.2s-9.5 3.4-14.5 5.2c-4.9 1.7-9.9 3.5-11 4-1.1.5-6.3 2.4-11.5 4.1-5.2 1.7-10.6 3.6-12 4.2-1.4.5-2.9 1.1-3.5 1.3-.5.1-6.8 2.4-14 4.9-14.4 5.2-30.1 10.8-44.5 15.9-5.2 1.9-15.3 5.5-22.5 8.1-7.1 2.5-14.6 5.1-16.5 5.7-1.9.6-3.9 1.3-4.5 1.6-.5.4-1.4.7-2 .9-1 .2-25.6 8.9-28.5 10-.8.4-1.7.7-2 .8-.3.1-1.2.4-2 .7-.8.4-6.2 2.3-12 4.3s-13.4 4.7-17 6c-3.6 1.3-10.5 3.8-15.5 5.5-4.9 1.8-9.9 3.6-11 4-1.8.7-9.7 3.4-13.5 4.6-.8.3-1.6.5-1.7.5-.2-.1-2.8 1-5.8 2.4-3.1 1.3-5.8 2.4-6 2.5-.3 0-.6 0-.7.1-.2 0-1 .2-1.8.4s-5.3 1.7-10 3.5c-4.7 1.7-9.2 3.3-10 3.5-1.2.3-13.9 4.9-20 7.2-.8.3-1.9.7-2.5.9-4.1 1.2-17.7 6.2-18.2 6.7-.3.4-1.2.7-1.9.7s-2.5.5-4.1 1.2c-1.5.6-3.5 1.2-4.3 1.4-.8.2-2.3.7-3.5 1.3-1.1.5-4.5 1.7-7.5 2.7-3 1-5.9 2.2-6.5 2.6-.5.4-1.5.8-2.1.8-.7 0-2.5.5-4.1 1.2-1.5.6-3.2 1.2-3.8 1.3-.9.2-27.4 9.7-31.5 11.2-.8.3-1.9.7-2.5.9-.5.1-4.8 1.6-9.5 3.4-4.7 1.7-11.9 4.3-16 5.7-4.1 1.4-8.2 2.9-9.1 3.4-3.5 1.8-5.5-2.2-13.9-27.1-1-3-3-8.7-4.5-12.5-1.5-3.9-3-8.2-3.5-9.7-.8-2.5-6.4-18.3-7.7-21.8-.3-.8-.7-2-.9-2.5-.2-.6-1.9-5.5-3.9-11s-5.1-14.3-6.9-19.5c-1.9-5.2-3.9-10.9-4.6-12.5-.6-1.7-1.4-3.7-1.6-4.5-.4-1.7-7.1-20.7-8.1-23-.3-.8-.7-2-.9-2.5-.7-2.4-5.6-16.2-6.4-18-.5-1.1-1.9-4.9-3.1-8.5-1.2-3.6-2.8-8.1-3.5-10-.7-1.9-3.1-8.9-5.5-15.5-2.3-6.6-4.6-13.1-5.2-14.5-.5-1.4-1.1-3.1-1.3-3.7-.1-.7-1.5-4.6-3-8.5-1.6-4-2.9-7.5-2.9-7.8-.2-1.2-1.7-5.6-2.5-7.5-.5-1.1-3.4-9.2-6.5-18-5-14.3-7.7-21.8-10.1-28-.4-1.1-.8-2.2-.9-2.5-.6-2.5-1.8-5.9-2.5-7.5-.5-1.1-1.8-4.7-2.9-8-2.9-8.9-6-17.7-7.1-20-.5-1.1-2.5-6.5-4.4-12-1.9-5.5-5.5-15.9-8.1-23-2.5-7.2-5.1-14.6-5.7-16.5-.6-1.9-1.3-4-1.6-4.5-.4-.6-.7-1.5-.9-2-.2-1.1-7-20.2-8-22.5-.3-.8-.7-2-.9-2.5-.4-1.4-9.3-26.7-10.1-28.5-.3-.8-.7-2-.9-2.5-.4-1.7-5.5-15.9-6.4-18-.5-1.1-1.6-4-2.4-6.5-.8-2.5-4.4-12.8-8.1-23-3.7-10.2-7.5-21-8.5-24-1.9-5.6-8.6-24.3-9.7-27-.3-.8-.7-2-.9-2.5-.1-.6-2.1-6.2-4.4-12.5-2.3-6.3-4.6-12.6-5-14-2.3-6.8-10-28.2-10.5-29-.3-.6-.8-1.8-1-2.7-.3-1.8-4-12.6-7.5-21.8-1-2.8-3.3-9.1-5-14-1.7-5-3.4-9.7-3.7-10.5-.3-.8-.7-2-.9-2.5-.4-1.5-8.4-23.8-9.1-25.5-.3-.8-.7-2-.9-2.5-.1-.6-1.7-4.8-3.4-9.5s-3.3-9.2-3.5-10c-.2-.8-2.1-6-4.1-11.5-2-5.5-5.5-15.4-7.9-22-2.3-6.6-5.9-16.5-7.9-22s-3.9-10.7-4.1-11.5c-.4-1.7-8.2-23.7-9.2-26-.3-.8-.7-2-.8-2.5-.3-.9-4-11.2-5.2-14.5-.4-.8-.7-1.7-.8-2-.1-.3-.4-1.2-.8-2-.3-.8-1.8-5.1-3.3-9.5-1.5-4.4-3.1-9.1-3.7-10.5-.5-1.4-1.1-3-1.3-3.5-.3-1.4-6.1-17.8-8.4-24-1-2.8-3.3-9.1-5-14-1.7-5-3.5-9.9-4-11-1.1-2.7-9-24.6-9.5-26.5-.5-2.1-5.5-16.1-6.5-18.5-.5-1.1-2.1-5.6-3.6-10s-3.3-9.2-4.1-10.8c-.7-1.5-1.1-2.7-.8-2.7.3 0-.2-1.7-1.1-3.8-.9-2-2.2-5.5-2.9-7.7-1.2-3.7-7.6-21.6-11.1-31-.8-2.2-1.7-4.7-1.9-5.5-.2-.8-2.2-6.5-4.4-12.5-11.5-32.2-14.4-40.2-15.1-42.5-.5-1.4-2-5.7-3.5-9.5-1.4-3.9-2.7-7.5-2.9-8-.5-2.1-2.9-9-3.5-10-.3-.6-.6-1.5-.8-2-.1-.6-2.1-6.2-4.3-12.5-2.3-6.3-5.9-16.5-8-22.5-2.1-6.1-5.9-16.6-8.3-23.5-2.5-6.9-8.2-22.9-12.6-35.5-4.5-12.7-9.1-25.3-10.1-28-1-2.8-3.3-9.1-5-14-1.7-5-4.2-11.9-5.5-15.5-1.3-3.6-4.7-13-7.5-21s-5.3-15.2-5.7-16c-.3-.8-.7-2.2-.9-3-.2-.8-.7-2.3-1.3-3.5-.5-1.1-4.8-13-9.5-26.5-4.8-13.5-9.1-25.3-9.6-26.2-.6-1-1-2.4-1-3.2 0-.7-.9-3.5-2-6.2-1-2.7-5.6-15.3-10-27.9-4.5-12.7-8.5-24.1-9.1-25.3-.5-1.3-1.9-5.2-3-8.5-1.1-3.4-2.3-6.9-2.6-7.7-.3-.8-.7-2-.9-2.5-.3-1.2-3.6-10.2-6.4-17.5-1.2-3-2.2-6-2.4-6.5-.5-2.1-2.9-9-3.5-10-.3-.6-.6-1.5-.7-2-.1-.6-2.3-6.9-4.9-14-2.6-7.2-5.1-14.4-5.7-16-.5-1.7-1.3-3.9-1.8-5s-1.4-3.8-2.1-6c-.6-2.2-1.6-4.6-2.2-5.3-.5-.6-.6-1.2-.1-1.2.4 0 .3-.5-.4-1.2s-1.2-1.8-1.2-2.4c0-.7-.5-2.5-1.2-4.1-.6-1.5-1.2-3-1.3-3.3-.4-1.9-4.9-14.7-5.4-15.5-.3-.6-.6-1.5-.8-2-.2-1.4-4.2-12.6-5.2-15-.5-1.1-3-8.1-5.6-15.5-2.5-7.4-5-14.4-5.5-15.5-.4-1.1-2.3-6.3-4.1-11.5-1.8-5.2-3.7-10.1-4.2-10.8-.5-.6-.7-1.2-.4-1.2.3 0-.8-3.5-2.5-7.8-1.6-4.2-3.1-8.4-3.3-9.2-.3-1.3-3.7-11-5.2-15-.4-.8-.7-1.7-.8-2-.1-.3-.4-1.2-.8-2-.3-.8-1.4-3.8-2.3-6.5-3.9-11.4-6.4-18.5-9.9-28-2-5.5-4-11.1-4.4-12.5-.9-2.6-7.8-22.4-8.8-25-.3-.8-.7-2-.9-2.5-.5-1.7-8.5-23.9-9.4-26-.5-1.1-2.5-6.7-4.5-12.5-1.9-5.8-3.8-11.2-4.2-12-.3-.8-.7-2-.9-2.5-.4-1.6-5.4-15.8-6.4-18-.5-1.1-1.4-3.8-2.1-6-.6-2.2-1.6-4.6-2.2-5.3-.5-.6-.7-1.2-.3-1.2.3 0-.5-2.5-1.9-5.5-1.3-3.1-2.4-5.6-2.3-5.8.2-.3-4.4-14.1-5.1-15.2-.3-.6-.6-1.3-.7-1.8-.1-.4-.2-.8-.4-1-.1-.1-.3-.9-.5-1.7-.6-2.2-4.4-13.2-5.4-15.5-1-2.3-5.8-15.6-9.7-27-1.5-4.4-3.1-8.8-3.6-9.8s-1.1-2.6-1.3-3.5c-.3-1.5-4.5-13.6-6.2-18.2-.3-.8-.7-2-.9-2.5-.2-.6-1-2.8-1.8-5-3.7-10.1-8.8-24.2-9.6-26.5-.4-1.4-2.9-8.4-5.5-15.5-2.5-7.2-5.5-15.5-6.5-18.5s-2.5-7.3-3.3-9.5c-.9-2.2-3-8.1-4.7-13-1.7-5-3.5-9.9-4-11-.4-1.1-1.6-4.3-2.5-7-.9-2.8-2.7-7.9-4-11.5-1.3-3.6-4.7-13-7.5-21s-5.4-15.2-5.7-16c-.3-.8-.7-1.7-.7-2-.1-.4-2.8-8-4.3-12-.3-.8-.7-2-.9-2.5-.1-.6-.9-2.7-1.8-4.8-.9-2-1.4-3.7-1.1-3.7.3 0 .1-.9-.6-2.1-1.4-2.6-5.9-14.7-6.4-17.4-.3-1.1-.9-3.1-1.5-4.5-2.9-7.4-3.3-8.6-3.6-9.5-.3-1.3-8.3-23.6-9.1-25.5-.3-.8-.7-2-.9-2.5-.1-.6-1.9-5.5-3.8-11-2-5.5-4.8-13.4-6.2-17.5-1.4-4.1-2.9-8.4-3.4-9.5-.5-1.1-1.6-4-2.4-6.5-.8-2.5-3.1-9-5.1-14.5-2-5.5-4.6-12.7-5.7-16-1.1-3.3-2.5-7.1-3.1-8.5-.6-1.4-1.1-3-1.2-3.5-.2-.6-2.6-7.4-5.4-15.2-2.8-7.8-5.1-14.4-5.1-14.8 0-.4-.6-2.1-1.4-3.8-1.4-3.3-5-12.8-5.1-13.7-.2-1.1-2.8-8.6-3.4-9.5-.3-.6-.6-1.6-.7-2.2-.2-1.1-3.6-10.6-6.1-17.3-.4-.8-.7-1.7-.8-2-.1-.3-.7-1.8-1.3-3.3-.7-1.6-1.2-3.1-1.2-3.5 0-.4-3.2-9.5-7.1-20.2-3.8-10.7-8.7-24.5-10.9-30.5-2.1-6.1-6.2-17.5-9-25.5s-5.6-15.6-6-17c-.5-1.4-2.8-7.7-5-14-2.3-6.3-5.7-15.8-7.5-21-1.8-5.2-4-11.3-4.8-13.5-2.7-7-3-8-3.3-9-.1-.6-2.1-6.2-4.4-12.5-2.3-6.3-4.6-12.6-5-14-.5-1.4-2.7-7.7-5-14s-4.8-13.5-5.6-16c-.8-2.5-1.9-5.4-2.3-6.5-1.1-2.5-6.5-17.6-8.4-23.5-.8-2.5-2.2-6.3-3-8.5-.9-2.2-3-8.1-4.7-13-1.7-5-3.4-9.7-3.7-10.5-.3-.8-.7-2-.9-2.5-.6-2.2-4.5-13.1-5.4-15-.5-1.1-1.6-4-2.4-6.5-2.1-6.3-10.5-30.2-11.3-32-.3-.8-.7-2-.9-2.5-1.2-4-9.5-26.9-10.5-28.7-.7-1.3-1.2-2.5-1.2-2.8.1-1.1-6.6-20.7-7.9-23.3-.5-1-1.1-2.6-1.3-3.5-.2-.9-2.3-6.9-4.5-13.2-2.3-6.3-5.7-16-7.6-21.5-1.9-5.5-3.9-10.9-4.4-12-.5-1.1-1.8-4.7-2.9-8-1.1-3.3-3.6-10.5-5.6-16-2-5.5-5.3-15-7.5-21-3.7-10.5-11.5-32.5-14.6-41-.8-2.2-2.8-8.1-4.5-13-1.8-5-3.8-10.2-4.5-11.7-.8-1.5-1.4-3-1.4-3.3 0-.3 0-.6-.1-.8 0-.1-.2-.9-.4-1.7-.2-.8-2-6-4-11.5s-5-13.8-6.6-18.5c-1.6-4.7-3.2-9.2-3.6-10-.3-.8-.7-2-.9-2.5-.1-.6-1.7-4.8-3.4-9.5s-4.2-11.7-5.5-15.5c-3.8-11-9.5-26.9-10.2-28.5-.3-.8-.7-1.7-.8-2-.5-2-4.9-14.7-5.4-15.5-.3-.6-.6-1.5-.8-2-.1-.6-1.6-4.8-3.3-9.5-1.7-4.7-4.5-12.6-6.2-17.5-1.7-5-3.5-10.1-4.1-11.5-.6-1.4-1.1-3-1.3-3.5-.1-.6-2.1-6.2-4.4-12.5-2.3-6.3-4.8-13.3-5.5-15.5-.7-2.2-3-8.5-5-14s-4.3-12-5.1-14.5c-.8-2.5-1.9-5.3-2.4-6.2-.6-1-1-2.2-1-2.7s-.5-2.2-1.2-3.8c-.6-1.5-1.2-3.3-1.4-3.8-.1-.6-1.1-3.5-2.2-6.5s-4.5-12.7-7.6-21.5c-3.1-8.8-5.9-16.7-6.3-17.5-.3-.8-.7-1.7-.8-2-.1-.3-.4-1.2-.7-2-.4-.8-1.4-4-2.4-7s-2.2-5.9-2.6-6.5c-.4-.5-.8-1.5-.8-2.1 0-.7-.5-2.5-1.2-4.1-.6-1.5-1.2-3.3-1.4-3.8-.1-.6-1.4-4.2-2.8-8-7.9-21.9-9.9-27.7-12.1-34-1.3-3.9-3.3-9.5-4.5-12.5-1.2-3-2.3-6.2-2.5-7-.2-.8-2.2-6.5-4.4-12.5-2.1-6.1-5.8-16.2-8.1-22.5-2.2-6.3-4.9-14-6-17-1-3-3.7-10.7-6-17-2.3-6.3-4.3-12-4.4-12.5-.3-1.1-1-3.1-3.1-8.5-1.2-3.2-3.7-10.3-11.6-33-1.7-4.7-3.5-9.6-4.1-11-.5-1.4-1.6-4.5-2.4-7-.8-2.5-1.9-5.4-2.4-6.5-.4-1.1-2.5-6.7-4.5-12.5s-3.9-11.2-4.2-12c-.4-.8-.7-1.7-.7-2-.2-.8-7.4-21.1-10.2-28.5-.4-1.1-.8-2.5-1-3-.2-.6-2.3-6.6-4.8-13.5s-6.5-18.4-9.1-25.5c-2.5-7.2-4.8-13.7-5.2-14.5-.3-.8-.7-2-.9-2.5-.1-.6-1.9-5.5-3.9-11s-3.7-10.5-3.9-11c-.2-.6-.8-2.3-1.4-3.8-.7-1.6-1.2-3.1-1.2-3.5 0-.4-1.1-3.6-2.4-7.2-1.4-3.6-4.8-13-7.6-21-2.9-8-6.2-17.4-7.5-21-1.3-3.6-4.3-11.9-6.6-18.5s-4.7-13.1-5.2-14.5c-.6-1.4-1.1-3-1.3-3.5-.1-.6-1.1-3.5-2.2-6.5s-3.7-10.2-5.7-16c-2-5.8-4-11.4-4.5-12.5-1.1-2.8-4.4-11.8-4.6-13-.2-.6-1.2-3.5-2.4-6.5s-2.2-6-2.4-6.5c-.5-2.1-2.9-9-3.5-10-.3-.6-.6-1.5-.7-2-.1-.6-1.4-4.4-2.9-8.5-3.3-9.5-3.6-10.4-3.5-10.8 0-.1-.7-1.6-1.5-3.2s-1.5-3.1-1.4-3.2c0-.2-.4-1.6-1-3.1-.6-1.6-1.1-3.3-1.1-3.8s-.4-1.7-1-2.7c-.5-.9-1.6-3.7-2.4-6.2-.8-2.5-3.1-9-5.1-14.5-2-5.5-4.2-11.8-4.9-14-2-5.7-10.5-29.7-11.3-31.5-.3-.8-.7-2-.9-2.5-.5-2.3-9.3-26.6-9.9-27.5-.3-.5-.8-1.8-1-2.7-.1-1-3-9.2-6.3-18.3-3.3-9.1-6.8-18.8-7.7-21.5-2.3-6.7-5.5-15.6-10.5-29.5-2.3-6.3-4.8-13.5-5.6-16-.9-2.5-2.2-5.9-3-7.7-.8-1.7-1.4-3.7-1.4-4.5 0-.8-.3-1.8-.7-2.2-.5-.4-.8-1.1-.8-1.4-.1-1.6-3.9-11.8-4.8-13-.5-.6-.7-1.2-.3-1.2.3 0-.4-2.4-1.5-5.3-1.2-2.8-2.7-7-3.4-9.2-.7-2.2-2.3-6.7-3.5-10-1.2-3.3-4.2-11.6-6.6-18.5-2.5-6.9-4.7-13.2-5.1-14-.3-.8-.7-2-.9-2.5-.5-1.9-10.2-29.1-12.5-35-1.3-3.3-2.4-6.7-2.5-7.5-.2-.8-.7-2.3-1.3-3.5-1-2-4.9-12.8-5.6-15.5-.2-.8-1.8-5.3-3.5-10s-3.3-9.3-3.5-10.2c-.2-.9-.8-2.5-1.3-3.5s-2.1-5.4-3.6-9.8c-4-11.6-8.7-24.7-9.7-27-.5-1.1-2.4-6.5-4.3-12-4.9-14.3-12.5-35.7-13.3-37.5-.3-.8-.7-1.7-.7-2-.1-.3-.9-2.5-1.8-5s-3.5-9.9-5.8-16.5-4.8-13.4-5.6-15.2c-.8-1.7-1.4-3.7-1.4-4.5 0-.8-.3-1.8-.7-2.2-.4-.3-.8-1.2-.9-1.9-.1-.7-1.4-4.6-2.9-8.7s-4.7-13.1-7.1-20c-2.5-6.9-4.8-13.2-5.1-14-.3-.8-.7-2-.9-2.5-.1-.6-2.3-6.9-4.9-14-2.6-7.2-6-16.8-7.7-21.5-1.6-4.7-3.4-9.4-3.8-10.5-.4-1.1-1.8-4.9-3-8.5-1.1-3.6-2.5-7.4-3-8.5-.4-1.1-1.6-4.5-2.6-7.5s-2.2-5.9-2.6-6.5c-.4-.5-.8-1.5-.8-2.1 0-.7-.5-2.5-1.2-4.1-.6-1.5-1.2-3.3-1.4-3.8-.1-.6-2.5-7.3-5.3-15-2.9-7.7-5.4-14.7-5.6-15.5-3-10.9-11.7-29.8-18.1-39.7-19.5-29.6-49.6-51.5-79-57.3-3.3-.7-7-1.4-8.4-1.7-2.9-.6-34.6-1.4-35.1-.8zm25.4 533.7c.9 2.1 1.2 3.8.8 3.8-.5 0-1.2-1.1-1.5-2.4-.3-1.3-.9-3.2-1.3-4.3-1.1-3.2.4-.9 2 2.9zm-6.9 3.2c-1 3.1-1.9 5.4-2.2 5.2-.2-.2.4-2.9 1.4-6 1-3.1 1.9-5.4 2.2-5.2.2.2-.4 2.9-1.4 6zm11.6 10.1c1.3 3.8 2.7 7.6 3.3 8.2.6.9.6 1.3-.1 1.3-.6 0-2.2-3.5-3.7-7.8-1.5-4.2-2.9-8.4-3.2-9.2-.4-1-.2-1.2.5-.5.5.5 2 4.1 3.2 8zm-15.4 1.1c-.8 2.1-1.5 3.4-1.5 2.8-.1-1.5 2-7.6 2.5-7.1.2.2-.2 2.1-1 4.3zm-3.8 12.2c-.6 2.4-1.3 4.1-1.5 3.8-.2-.2.1-2.3.7-4.6s1.3-4 1.5-3.8c.2.2-.1 2.3-.7 4.6zm29.2 14.5c2.3 6.5 4 12 3.8 12.3-.4.3-9.5-24.6-10.5-28.6s3 5.8 6.7 16.3zm-31-8.3c0 .5-.5 1-1.1 1-.5 0-.7-.5-.4-1 .3-.6.8-1 1.1-1 .2 0 .4.4.4 1zm-1 3c0 .5-.5 1-1.1 1-.5 0-.7-.5-.4-1 .3-.6.8-1 1.1-1 .2 0 .4.4.4 1zm-2.9 8.1c-.5 1.3-1 1.9-1 1.2-.1-1.5 1-4.5 1.5-4 .3.2 0 1.5-.5 2.8zm-2.3 7.7c-.6 2.4-1.3 4.1-1.5 3.8-.2-.2.1-2.3.7-4.6s1.3-4 1.5-3.8c.2.2-.1 2.3-.7 4.6zm44.1 9.2c1.2 3 2.1 5.9 2 6.5 0 1.1-3.1-6.3-4.4-10.5-1.3-4.3.2-1.8 2.4 4zm-45.9-3c0 .5-.5 1-1.1 1-.5 0-.7-.5-.4-1 .3-.6.8-1 1.1-1 .2 0 .4.4.4 1zm-2.9 8.1c-.5 1.3-1 1.9-1 1.2-.1-1.5 1-4.5 1.5-4 .3.2 0 1.5-.5 2.8zm54.3 10.3c1.4 3.7 2.6 7.3 2.6 8-.1 1.1-3.9-8.4-5.5-13.4-1.5-4.8.3-1.5 2.9 5.4zm-58.6 3.4c-.6 2.4-1.3 4.1-1.5 3.8-.2-.2.1-2.3.7-4.6s1.3-4 1.5-3.8c.2.2-.1 2.3-.7 4.6zm-1.8 6.2c0 .5-.5 1-1.1 1-.5 0-.7-.5-.4-1 .3-.6.8-1 1.1-1 .2 0 .4.4.4 1zm66.9 9c0 1.7-2.3-3.4-3.3-7.1-.3-1.3.3-.6 1.3 1.6 1.1 2.2 2 4.7 2 5.5zm-68.8-3.9c-.5 1.3-1 1.9-1 1.2-.1-1.5 1-4.5 1.5-4 .3.2 0 1.5-.5 2.8zm-3 9c-.5 1.3-1 1.9-1 1.2-.1-1.5 1-4.5 1.5-4 .3.2 0 1.5-.5 2.8zm73.4-2.1c.3.5.1 1-.4 1-.6 0-1.1-.5-1.1-1 0-.6.2-1 .4-1 .3 0 .8.4 1.1 1zm2.7 8.2c2.4 6.9 2.2 8.7-.3 2.3-2.6-6.8-3.3-9.1-2.4-8.3.5.5 1.7 3.1 2.7 6zm-77.8.2c-.3 1.5-.8 2.5-1.1 2.3-.2-.3-.1-1.7.3-3.1.3-1.5.8-2.5 1.1-2.3.2.3.1 1.7-.3 3.1zm-3.3 9.7c-.5 1.3-1 1.9-1 1.2-.1-1.5 1-4.5 1.5-4 .3.2 0 1.5-.5 2.8zm85.6 2.7c.7 2 1.3 4.1 1.2 4.7 0 1.1-2.3-3.9-3.4-7.6-1.2-3.8.7-1.3 2.2 2.9zm-87.6 3.3c-.5 1.3-1 1.9-1 1.2-.1-1.5 1-4.5 1.5-4 .3.2 0 1.5-.5 2.8zm-2 6c-.5 1.3-1 1.9-1 1.2-.1-1.5 1-4.5 1.5-4 .3.2 0 1.5-.5 2.8zm94.7 5.9c0 1.7-2.2-3.2-3.2-7-.3-1.4.3-.7 1.3 1.5 1.1 2.2 1.9 4.7 1.9 5.5zm-95.8-1.5c0 .8-.4 1.5-1 1.5-.5 0-.7-.7-.4-1.5.4-.8.8-1.5 1-1.5.2 0 .4.7.4 1.5zm-2.4 7.1c-.8 2.1-1.5 3.4-1.5 2.8-.1-1.5 2-7.6 2.5-7.1.2.2-.2 2.1-1 4.3zm100.3.4c0 1-.3.8-.9-.5-1.2-2.7-1.2-4.3 0-2.5.5.8.9 2.2.9 3zm2.5 7c.5 1.7.4 2-.2 1-.5-.8-1.3-2.6-1.6-4-.5-1.7-.4-2 .2-1 .5.8 1.3 2.6 1.6 4zm2.9 7.2c.9 2.1 1.2 3.8.8 3.8-.5 0-1.2-1.1-1.5-2.4-.3-1.3-.9-3.2-1.3-4.3-1.1-3.2.4-.9 2 2.9zm-112.9 8.2c-.3 1.5-.8 2.5-1.1 2.3-.2-.3-.1-1.7.3-3.1.3-1.5.8-2.5 1.1-2.3.2.3.1 1.7-.3 3.1zm117.5 5.6c0 .8-.9-.8-1.9-3.5-1.1-2.8-2-5.2-1.9-5.5.2-1.1 3.8 7.6 3.8 9zm-120.8 4.1c-.5 1.3-1 1.9-1 1.2-.1-1.5 1-4.5 1.5-4 .3.2 0 1.5-.5 2.8zm124.8 6.9c0 1.7-2.3-3.4-3.3-7.1-.3-1.3.3-.6 1.3 1.6 1.1 2.2 2 4.7 2 5.5zm2 6c0 1-.3.8-.9-.5-1.2-2.7-1.2-4.3 0-2.5.5.8.9 2.2.9 3zm-131.6 2.8c-.3 1.2-.9 2.2-1.4 2.2-.5 0-.3-1.1.3-2.5 1.3-3 2-2.8 1.1.3zm133.7 2.7c0 .5-.5.3-1-.5s-1-2-1-2.5c0-.6.5-.3 1 .5s1 1.9 1 2.5zm2.9 8.5c0 1-.3.8-.9-.5-1.2-2.7-1.2-4.3 0-2.5.5.8.9 2.2.9 3zm-141.3 2.6c-.8 2.1-1.5 3.4-1.5 2.8-.1-1.5 2-7.6 2.5-7.1.2.2-.2 2.1-1 4.3zm143.4 2.9c0 .5-.5.3-1-.5s-1-2-1-2.5c0-.6.5-.3 1 .5s1 1.9 1 2.5zm2.5 5.5c.3.5.1 1-.4 1-.6 0-1.1-.5-1.1-1 0-.6.2-1 .4-1 .3 0 .8.4 1.1 1zm1.9 7c.5 1.7.4 2-.2 1-.5-.8-1.3-2.6-1.6-4-.5-1.7-.4-2 .2-1 .5.8 1.3 2.6 1.6 4zm-152.3-.9c-.5 1.3-1 1.9-1 1.2-.1-1.5 1-4.5 1.5-4 .3.2 0 1.5-.5 2.8zm-2.5 7.5c-.8 2.1-1.5 3.4-1.5 2.8-.1-1.5 2-7.6 2.5-7.1.2.2-.2 2.1-1 4.3zm-2.5 6.7c-1 .9-1.1.8-.5-.6.3-1 .9-1.5 1.2-1.2.3.3 0 1.1-.7 1.8zm162.4-.3c.3.5.1 1-.4 1-.6 0-1.1-.5-1.1-1 0-.6.2-1 .4-1 .3 0 .8.4 1.1 1zm3.4 11c0 1-.3.8-.9-.5-1.2-2.7-1.2-4.3 0-2.5.5.8.9 2.2.9 3zm-169.2 1.2c-.3.8-.6.5-.6-.6-.1-1.1.2-1.7.5-1.3.3.3.4 1.2.1 1.9zm171.3 4.3c0 .5-.5.3-1-.5s-1-2-1-2.5c0-.6.5-.3 1 .5s1 1.9 1 2.5zm2.9 8.5c0 1-.3.8-.9-.5-1.2-2.7-1.2-4.3 0-2.5.5.8.9 2.2.9 3zm2.1 5.5c0 .5-.5.3-1-.5s-1-2-1-2.5c0-.6.5-.3 1 .5s1 1.9 1 2.5zm-184.3 6.7c-.3.8-.6.5-.6-.6-.1-1.1.2-1.7.5-1.3.3.3.4 1.2.1 1.9zm186.7-.6c.3.8.2 1.2-.4.9-.6-.3-1-1-1-1.6 0-1.4.7-1.1 1.4.7zm2.6 7.9c0 .5-.5.3-1-.5s-1-2-1-2.5c0-.6.5-.3 1 .5s1 1.9 1 2.5zm-192.9 3.6c-.5 1.3-1 1.9-1 1.2-.1-1.5 1-4.5 1.5-4 .3.2 0 1.5-.5 2.8zm197.3 8.8c-.6.6-1.1-.1-1.8-2.9l-.7-2.5 1.5 2.5c.8 1.4 1.2 2.7 1 2.9zm3.5 10.1c0 1-.3.8-.9-.5-1.2-2.7-1.2-4.3 0-2.5.5.8.9 2.2.9 3zm-206.8.1c-.5 1.3-1 1.9-1 1.2-.1-1.5 1-4.5 1.5-4 .3.2 0 1.5-.5 2.8zm208.9 5.4c0 .5-.5.3-1-.5s-1-2-1-2.5c0-.6.5-.3 1 .5s1 1.9 1 2.5zm1.8 5.6c-.3.8-.7.3-1.1-1-.4-1.7-.3-2.1.5-1.3.5.5.8 1.6.6 2.3zm2.7 5.9c.3.5.1 1-.4 1-.6 0-1.1-.5-1.1-1 0-.6.2-1 .4-1 .3 0 .8.4 1.1 1zm-221.8 9.2c-.3.8-.6.5-.6-.6-.1-1.1.2-1.7.5-1.3.3.3.4 1.2.1 1.9zm225.2 1.8c0 1-.3.8-.9-.5-1.2-2.7-1.2-4.3 0-2.5.5.8.9 2.2.9 3zm2.1 5.5c0 .5-.5.3-1-.5s-1-2-1-2.5c0-.6.5-.3 1 .5s1 1.9 1 2.5zm-230.9 2.8c-1 .9-1.1.8-.5-.6.3-1 .9-1.5 1.2-1.2.3.3 0 1.1-.7 1.8zm-2 6c-1 .9-1.1.8-.5-.6.3-1 .9-1.5 1.2-1.2.3.3 0 1.1-.7 1.8zm237.4 2.7c.3.5.1 1-.4 1-.6 0-1.1-.5-1.1-1 0-.6.2-1 .4-1 .3 0 .8.4 1.1 1zm5.5 16.5c0 .5-.5.3-1-.5s-1-2-1-2.5c0-.6.5-.3 1 .5s1 1.9 1 2.5zm2.8 8.6c-.3.8-.7.3-1.1-1-.4-1.7-.3-2.1.5-1.3.5.5.8 1.6.6 2.3zm7.2 19.4c0 .5-.5.3-1-.5s-1-2-1-2.5c0-.6.5-.3 1 .5s1 1.9 1 2.5zm3.9 11.5c0 1-.3.8-.9-.5-1.2-2.7-1.2-4.3 0-2.5.5.8.9 2.2.9 3zm2.5 5.6c.3.8.2 1.2-.4.9-.6-.3-1-1-1-1.6 0-1.4.7-1.1 1.4.7zm-287.7 25.6c-.3.8-.6.5-.6-.6-.1-1.1.2-1.7.5-1.3.3.3.4 1.2.1 1.9zm301.3 13.3c0 .5-.5.3-1-.5s-1-2-1-2.5c0-.6.5-.3 1 .5s1 1.9 1 2.5zm28.4 79.1c.3.8.2 1.2-.4.9-.6-.3-1-1-1-1.6 0-1.4.7-1.1 1.4.7zm21 59c.3.8.2 1.2-.4.9-.6-.3-1-1-1-1.6 0-1.4.7-1.1 1.4.7zm41 115c.3.8.2 1.2-.4.9-.6-.3-1-1-1-1.6 0-1.4.7-1.1 1.4.7zm10 28c.3.8.2 1.2-.4.9-.6-.3-1-1-1-1.6 0-1.4.7-1.1 1.4.7z"/></svg>