<?xml version="1.0" encoding="utf-8"?>
<!-- Generator: Adobe Illustrator 21.1.0, SVG Export Plug-In . SVG Version: 6.00 Build 0)  -->
<svg version="1.1" id="Layer_1" xmlns="http://www.w3.org/2000/svg" xmlns:xlink="http://www.w3.org/1999/xlink" x="0px" y="0px"
	 viewBox="0 0 1366 768" style="enable-background:new 0 0 1366 768;" xml:space="preserve">
<style type="text/css">
	.st0{fill:#92DCE5;}
	.st1{fill:#4EA5D9;}
	.st2{fill:#476C9B;}
</style>
<g>
	<path class="st0" d="M67.8,544.6c-1.2-9.1-0.8-18.5,1.3-27.2c4.6-20.9,16.7-37.3,30.3-48.4c21.6-17.8,48.9-16.7,72.4-7.1
		c32.1,14.7,70.9,65.7,84,81.5c70.5,85,111.6-0.7,112.5-40.1c3.3-134.7,136.4,156.5,247.6,2.7C719,363.6,795.7,722,799.8,563
		c4.1-159,143.1,53.5,191.1-25.4c82.8-136.3,101.8,116.1,187.5-15.5c49.2-75.5,35.9,164.2,109.5,35.8
		c63.7-111.3,78.2,45.9,78.2,72.6c0,1.6,0,37.3,0,137.5H0c0-18.7,0-20.8,0-33.4c50.1,0,154-11.2,169.4-37.6
		c21.6-38.9,32.4-90.9,23.1-138.7c-8.7-44.2-41.7-75.2-75-75c-15.2,0.3-30.5,10.5-38.6,28.2c-0.1,0.3-0.2,0.5-0.3,0.8
		c-2.2,5.7-4.6,12.9-1.9,19c0.9,2.8,2.4,4.8,4,6.4"/>
	<path id="Layer_2" class="st1" d="M0,768c0,0,0-227.1,0-252.9c0-17.8,30.2-7.1,30.7,27.9c1,79.2,67-60.9,71.7,23
		s84.5-90.6,97.5,6.8s69.7-95.1,86.2,0.6c16.5,95.7,87.4-71.5,90.4,13.6c3,85.1,78-116.4,84.5-13.6s89.2-76.8,92.1-1.8
		c3,75,133.5-88.6,135.8-16.5c0.7,21,50.7,16,67.9,1.4c9.8-8.3,17.8-18.6,23.9-29.9c11.6-20.6,27.3-41.2,50.5-49.1
		c17-5.1,36.8-5.7,52.4,3.8c9.8,5.9,18.6,14.7,21.9,25.9c3.2,9.8,0.8,21.3-5.9,29.2c-3.4,4.3-10.9,5-14.6,1
		c-0.7-0.8-1.1-1.7-1.4-2.7c-0.7-2.8-0.4-5.9,0.9-8.5c3.3-6.1,12.5-5.2,15.4-11.5c1.9-3.3,0.3-7.1-1.4-10.2
		c-0.1-0.1-0.2-0.3-0.2-0.4c-5.9-9.5-17-14.9-28-15.1c-24.1-0.1-48,16.4-54.3,40.1c-6.7,25.5,1.1,53.4,16.7,74.2
		c11.2,14.1,26.4,25,43.3,31.3c10.9,3.9,23.8,5.3,34.3-0.5c6.5-3.6,12.2-9.8,12.9-17.5c0-0.2,0-0.5,0-0.7
		c-0.1-10.5-9.4-19.4-19.6-20.4c-2.5-0.2-5.1,0.4-7.4,1.5l-19.3,1.4c0.8-9.3,8.9-16.7,17.5-19.7c11.6-4.4,24.4-2.1,35.8,1.8
		c19.3,6.8,36.2,18.8,51.5,32.1c1.3,1.2,2.7,2.2,4.2,3.2c4.7,3.3,10.8-1.2,9.2-6.7c-1.6-5.4-2.2-11.1-1.3-16.8
		c1.6-14,12.5-26.8,26.7-29c6.4-0.7,13.6-0.7,19.3,2.8c2.8,1.3-3.4,3.6,28.8,68.7c27.1,54.7,67-91.5,71.7-7.6
		c4.7,83.9,84.5-90.6,97.5,6.8c13,97.5,69.7-95.1,86.2,0.6c7.1,41.2,24.3,33.7,41.9,18.5l0,114.9"/>
	<path class="st2" d="M1366,768H0l0-154.9c0,0,76.9-84.9,74.2-17c-3,73.6,90.5-51.1,96.4,26.9s106.1-83.5,122.4,7.1
		c16.3,90.7,87.5-88.5,108.3,0.5c20.8,89,109.8-66.5,113.5,12.6c3.7,79.1,97.9-108.2,106.1-12.6c8.2,95.6,112-71.4,115.7-1.6
		c2.7,51.4,155.1-34.3,159.8-32.2c6.4,1.8,10.3,6.9,10.8,16.8c0.9,19.6,63.7,14.9,85.3,1.3c12.3-7.7,22.3-17.3,29.9-27.8
		c14.5-19.2,34.2-38.3,63.4-45.7c21.4-4.7,46.2-5.3,65.8,3.5c12.3,5.5,23.3,13.7,27.5,24.1c4,9.2,1,19.8-7.4,27.1
		c-4.2,4-13.6,4.7-18.3,0.9c-0.9-0.7-1.4-1.6-1.7-2.5c-0.9-2.6-0.6-5.5,1.1-7.9c4.1-5.6,15.6-4.8,19.3-10.7c2.4-3.1,0.3-6.6-1.7-9.5
		c-0.1-0.1-0.2-0.3-0.3-0.4c-7.4-8.8-21.3-13.9-35.1-14c-30.3-0.1-60.3,15.3-68.2,37.3c-8.5,23.8,1.4,49.7,21,69
		c14,13.1,33.2,23.2,54.4,29.1c13.7,3.6,29.9,5,43-0.5c8.1-3.4,15.4-9.1,16.2-16.3c0-0.2,0-0.4,0-0.6c-0.2-9.7-11.8-18.1-24.7-19
		c-7.4-0.3-14.9,2.9-18.3,7.8c-0.2,0.3-0.4,0.6-0.5,0.9c0,0,0,0.1,0,0.1c-2.2,6-14.3,5.1-14.8-1.1c-0.1-0.9-0.1-1.9,0-2.8
		c0-0.1,0-0.2,0-0.3c-0.3-9.6,10.5-17.3,22-20.2c14.6-4.1,30.7-2,45,1.6c24.2,6.3,45.4,17.5,64.7,29.8c1.7,1.1,3.4,2.1,5.2,3
		c5.9,3,13.6-1.1,11.6-6.2c-2-5-2.8-10.3-1.6-15.6c2-13.1,15.8-24.9,33.6-26.9c8.1-0.6,17-0.7,24.2,2.6c3.6,1.2,3.6,4.9,1.3,6.8
		c-6.2,5.9-17.8,7.5-22.2,14.5c-5.3,9.3-1.6,20.3,6.4,28.2c7.3,7.1,32.6,6,32.6,17"/>
	<path class="st0" d="M80.8,537.6c5.5,5.3,13.7,6.3,17.2,15c1.8,4.8,2.2,10.7,1.2,15.9c-0.3,1.9-0.9,3.7-1.9,5.1
		c-5.1,7.6-15.5,6.2-20.1-1.8c-4.9-7.7-8.1-17.3-9.4-27.3C71.9,541.9,76,539.4,80.8,537.6z"/>
	<path class="st1" d="M896.3,596.9c-3,1.5-5.6,3.9-7.2,6.9c-0.2,0.3-0.3,0.7-0.4,1c0,0,0,0.1,0,0.1c-1.8,6.5-11.4,5.5-11.8-1.2
		c-0.1-1-0.1-2,0-3c0-0.1,0-0.2,0-0.4c0-0.7,0-1.4,0.1-2C884,596.4,890.6,595.4,896.3,596.9z"/>
</g>
</svg>
