<svg id="DeliveryTrack_FOOTER_GRAPHIC" data-name="DeliveryTrack FOOTER GRAPHIC" xmlns="http://www.w3.org/2000/svg" viewBox="0 0 1366 312.93"><title>footer-waves</title><path id="Waves_BG" data-name="Waves BG" d="M67.75,544.57A76,76,0,0,1,69,517.36,87.13,87.13,0,0,1,99.3,469c21.63-17.76,48.88-16.66,72.41-7.12,32.1,14.74,70.89,65.74,84,81.54,70.5,85,111.59-.74,112.54-40.1C371.51,368.58,504.61,659.8,615.89,506,719,363.64,795.74,722,799.82,563s143.13,53.52,191.08-25.4c82.83-136.32,101.81,116.08,187.46-15.46,49.17-75.52,35.94,164.23,109.49,35.77,63.71-111.28,78.15,45.85,78.15,72.63V768H0c0-18.69,0-20.8,0-33.45,50.12,0,154-11.22,169.42-37.63C191,658.07,201.85,606,192.53,558.24c-8.71-44.23-41.66-75.25-75-75-15.19.29-30.51,10.49-38.63,28.19-.12.25-.23.51-.33.78-2.25,5.73-4.56,12.87-1.87,19a15.78,15.78,0,0,0,4,6.41" transform="translate(0 -455.07)" fill="#92dce5"/><path id="Waves_MG" data-name="Waves MG" d="M0,768V515.09C0,497.32,30.22,508,30.68,543c1,79.18,67-60.88,71.69,23s84.46-90.63,97.46,6.83,69.7-95.09,86.23.59S373.47,502,376.42,587s78-116.36,84.46-13.58,89.19-76.78,92.14-1.77,133.49-88.6,135.85-16.54c.69,21,50.69,16,67.94,1.41a103.62,103.62,0,0,0,23.85-29.91c11.58-20.62,27.25-41.21,50.5-49.09,17-5.1,36.77-5.69,52.42,3.81,9.81,5.89,18.56,14.69,21.93,25.86a31.06,31.06,0,0,1-5.91,29.15c-3.37,4.29-10.86,5-14.56,1a6.09,6.09,0,0,1-1.37-2.71,12.48,12.48,0,0,1,.88-8.53c3.27-6.05,12.45-5.15,15.37-11.45,1.95-3.29.27-7.11-1.36-10.17-.08-.14-.15-.28-.24-.41-5.88-9.46-17-14.92-28-15.07-24.13-.14-48,16.45-54.29,40.1-6.75,25.55,1.09,53.39,16.73,74.16a100.08,100.08,0,0,0,43.29,31.27c10.89,3.92,23.81,5.34,34.25-.54,6.46-3.63,12.23-9.83,12.93-17.48a6.62,6.62,0,0,0,0-.69c-.14-10.47-9.43-19.42-19.64-20.45a15,15,0,0,0-7.39,1.52l-19.3,1.4c.83-9.35,8.92-16.74,17.49-19.69,11.61-4.42,24.44-2.15,35.85,1.75,19.28,6.78,36.17,18.82,51.49,32.09a48.58,48.58,0,0,0,4.16,3.23,6,6,0,0,0,9.22-6.67,37.12,37.12,0,0,1-1.29-16.77c1.58-14,12.55-26.8,26.75-29,6.45-.66,13.57-.73,19.26,2.81,2.83,1.28-3.39,3.56,28.84,68.7,27.09,54.75,67-91.46,71.69-7.59s84.46-90.63,97.46,6.83,69.7-95.09,86.23.59c7.13,41.22,24.34,33.66,41.86,18.5V768" transform="translate(0 -455.07)" fill="#4ea5d9"/><path id="Waves_FG" data-name="Waves FG" d="M1366,768H0V613.11s76.9-84.94,74.17-17c-3,73.62,90.49-51.1,96.42,26.92S276.65,539.48,293,630.14s87.52-88.46,108.29.55S511,564.21,514.73,643.32s97.9-108.24,106.06-12.64,112-71.43,115.7-1.65c2.73,51.36,155.07-34.27,159.8-32.15,6.41,1.76,10.35,6.88,10.78,16.77.87,19.58,63.66,14.91,85.32,1.32a108.2,108.2,0,0,0,29.95-27.83c14.54-19.18,34.22-38.33,63.41-45.66,21.39-4.75,46.17-5.29,65.83,3.54,12.32,5.48,23.31,13.67,27.54,24.06,4,9.16,1,19.84-7.42,27.12-4.23,4-13.64,4.67-18.28.9a5.31,5.31,0,0,1-1.72-2.52,8.92,8.92,0,0,1,1.11-7.93c4.11-5.63,15.63-4.79,19.3-10.66,2.44-3.06.34-6.61-1.7-9.46-.09-.13-.19-.26-.3-.39-7.38-8.8-21.31-13.88-35.12-14-30.3-.13-60.25,15.3-68.17,37.3-8.47,23.77,1.37,49.66,21,69,14,13.14,33.19,23.24,54.36,29.09,13.67,3.64,29.9,5,43-.5,8.11-3.37,15.36-9.15,16.23-16.26a4.57,4.57,0,0,0,0-.64c-.17-9.74-11.84-18.06-24.66-19-7.41-.33-14.92,2.93-18.28,7.81a4.44,4.44,0,0,0-.49.93l0,.12c-2.25,6-14.28,5.1-14.8-1.13a16.53,16.53,0,0,1,0-2.8,2.91,2.91,0,0,0,0-.35c-.32-9.57,10.51-17.26,22-20.2,14.58-4.12,30.69-2,45,1.63,24.2,6.31,45.41,17.5,64.66,29.85,1.67,1.08,3.41,2.07,5.22,3,5.89,3,13.61-1.1,11.58-6.2a26,26,0,0,1-1.62-15.6c2-13.07,15.75-24.93,33.59-26.94,8.09-.62,17-.68,24.19,2.62,3.55,1.19,3.55,4.85,1.35,6.83-6.15,5.86-17.8,7.45-22.22,14.48-5.26,9.35-1.61,20.34,6.41,28.22,7.32,7.12,32.56,6,32.56,17" transform="translate(0 -455.07)" fill="#476c9b"/><path id="Splash_2" data-name="Splash 2" d="M80.76,537.65c5.49,5.31,13.73,6.35,17.19,15a30.92,30.92,0,0,1,1.22,15.95,13.25,13.25,0,0,1-1.89,5.07c-5.11,7.56-15.45,6.21-20.1-1.82a67.85,67.85,0,0,1-9.42-27.29A65.3,65.3,0,0,1,80.76,537.65Z" transform="translate(0 -455.07)" fill="#92dce5"/><path id="Splash_1" data-name="Splash 1" d="M896.3,596.89a15.68,15.68,0,0,0-7.17,6.88,5.51,5.51,0,0,0-.39,1l0,.13c-1.79,6.47-11.37,5.48-11.79-1.22a24,24,0,0,1,0-3c0-.12,0-.25,0-.37a17.87,17.87,0,0,1,.06-2C884,596.39,890.62,595.4,896.3,596.89Z" transform="translate(0 -455.07)" fill="#4ea5d9"/></svg>